<?xml version="1.0" encoding="UTF-8"?>
<!DOCTYPE svg PUBLIC "-//W3C//DTD SVG 1.1//EN" "http://www.w3.org/Graphics/SVG/1.1/DTD/svg11.dtd">
<!-- Creator: CorelDRAW 2019 (64-Bit Evaluation Version) -->
<svg xmlns="http://www.w3.org/2000/svg" xml:space="preserve" width="297mm" height="210mm" version="1.1" style="shape-rendering:geometricPrecision; text-rendering:geometricPrecision; image-rendering:optimizeQuality; fill-rule:evenodd; clip-rule:evenodd"
viewBox="0 0 29700 21000"
 xmlns:xlink="http://www.w3.org/1999/xlink"
 xmlns:xodm="http://www.corel.com/coreldraw/odm/2003">
 <defs>
  <style type="text/css">
   <![CDATA[
    .fil2 {fill:black}
    .fil0 {fill:#FF6600}
    .fil3 {fill:gold}
    .fil1 {fill:black;fill-rule:nonzero}
   ]]>
  </style>
 </defs>
 <g id="Layer_x0020_1">
  <metadata id="CorelCorpID_0Corel-Layer"/>
  <rect class="fil0" transform="matrix(0.523362 0.85211 -0.85211 0.523362 14249.5 2429.56)" width="8487.48" height="5645.05"/>
  <path class="fil1" d="M14609.97 2209.62l4662.38 7591.04 -5529.88 3396.42 -4884.05 -7951.94 5529.88 -3396.43 221.67 360.91zm3500.68 7313.38l-4000.01 -6512.59 -4090.52 2512.38 4000 6512.59 4090.53 -2512.38z"/>
  <path class="fil1" d="M10482.53 9525.02l9179.15 0c106.34,0 213.75,17.77 315.98,50.15 172.25,54.55 336.12,154.74 459.33,284.09 146.38,153.67 239.35,348.81 239.35,567.51 0,75.89 -11.51,153.14 -36.1,230.82l-1233.46 3894.19c-62.37,196.93 -151.54,390.1 -286.32,545.01 -169.85,195.21 -393.48,321.07 -692.24,321.07l-6996.88 0c-271.12,0 -488.85,-105.22 -657.79,-274.14 -163.68,-163.68 -270.62,-386.97 -327.7,-621.35l-948.81 -3894.19c-16.39,-67.25 -24.14,-130.16 -24.14,-188.61 0,-232.17 100.18,-438.6 256.89,-597.43 135.43,-137.29 317.9,-239.38 510.01,-286.19 82.77,-20.15 164.63,-30.93 242.73,-30.93zm9179.15 886.03l-9179.15 0c-14.67,0 -26.39,1.13 -35.06,3.25 -32.26,7.84 -61.71,23.05 -83.14,42.88l939.86 3857.52c20.76,85.21 52.69,159.45 95.81,202.57 8.97,8.96 19.49,14.56 31.34,14.56l6996.88 0c7.18,0 15.56,-6.47 24.27,-16.48 43.77,-50.31 79.8,-135.35 109.8,-230.06l1214.4 -3834.03c-17.87,-12.78 -40.45,-23.66 -65.52,-31.6 -17.55,-5.55 -34.45,-8.61 -49.49,-8.61z"/>
  <path class="fil1" d="M16499.48 18166.7l-2107.61 0 0 -886.04 2107.61 0 0 886.04zm-5371.86 0c-507,0 -967.61,-207.1 -1301.24,-540.74 -333.64,-333.63 -540.74,-794.24 -540.74,-1301.25 0,-506.99 207.1,-967.61 540.74,-1301.24 333.63,-333.64 794.24,-540.74 1301.24,-540.74l0 886.04c-262.42,0 -501.34,107.69 -674.79,281.15 -173.47,173.46 -281.15,412.37 -281.15,674.79 0,262.43 107.68,501.35 281.15,674.8 173.45,173.46 412.37,281.15 674.79,281.15l0 886.04z"/>
  <circle class="fil2" cx="12680.03" cy="17775.87" r="886.66"/>
  <circle class="fil2" cx="18758.31" cy="17703.79" r="1223.78"/>
  <path class="fil1" d="M15513.38 9980.15l-142.32 5006.81 -882.56 -24.24 142.32 -5006.81 882.56 24.24z"/>
  <path class="fil1" d="M10400.62 12028.43l9200.64 0 0 886.03 -9200.64 0 0 -886.03z"/>
  <path class="fil3" d="M10747.15 12028.43l3824.76 0 45.98 -1617.38 -4135.36 0c-14.67,0 -26.39,1.13 -35.06,3.25 -32.26,7.84 -61.71,23.05 -83.14,42.88l382.82 1571.25z"/>
  <path class="fil3" d="M14546.73 12914.46l-3583.7 0 341.16 1400.24c20.76,85.21 52.69,159.45 95.81,202.57 8.97,8.96 19.49,14.56 31.34,14.56l3069.4 0 45.99 -1617.37z"/>
  <path class="fil3" d="M15429.98 12914.46l-45.98 1617.37 3044.22 0c7.18,0 15.56,-6.47 24.27,-16.48 43.77,-50.31 79.8,-135.35 109.8,-230.06l434.19 -1370.83 -3566.5 0z"/>
  <path class="fil3" d="M15455.16 12028.43l3821.97 0 499.56 -1577.17c-17.87,-12.78 -40.45,-23.66 -65.52,-31.6 -17.55,-5.55 -34.45,-8.61 -49.49,-8.61l-4160.54 0 -45.98 1617.38z"/>
 </g>
</svg>
