<?xml version="1.0" encoding="UTF-8"?>
<!DOCTYPE svg PUBLIC "-//W3C//DTD SVG 1.1//EN" "http://www.w3.org/Graphics/SVG/1.1/DTD/svg11.dtd">
<!-- Creator: CorelDRAW 2019 (64-Bit Evaluation Version) -->
<svg xmlns="http://www.w3.org/2000/svg" xml:space="preserve" width="297mm" height="210mm" version="1.1" style="shape-rendering:geometricPrecision; text-rendering:geometricPrecision; image-rendering:optimizeQuality; fill-rule:evenodd; clip-rule:evenodd"
viewBox="0 0 29700 21000"
 xmlns:xlink="http://www.w3.org/1999/xlink"
 xmlns:xodm="http://www.corel.com/coreldraw/odm/2003">
 <defs>
  <style type="text/css">
   <![CDATA[
    .fil1 {fill:black}
    .fil2 {fill:gold}
    .fil0 {fill:black;fill-rule:nonzero}
   ]]>
  </style>
 </defs>
 <g id="Layer_x0020_1">
  <metadata id="CorelCorpID_0Corel-Layer"/>
  <path class="fil0" d="M8744.36 2459.71l15128.49 0c175.26,0 352.29,29.3 520.78,82.67 283.88,89.89 553.96,255.02 757.03,468.21 241.26,253.27 394.48,574.88 394.48,935.34 0,125.07 -18.97,252.39 -59.5,380.42l-2032.91 6418.15c-102.79,324.56 -249.76,642.94 -471.89,898.25 -279.93,321.73 -648.5,529.17 -1140.9,529.17l-11531.8 0c-446.85,0 -805.69,-173.42 -1084.13,-451.83 -269.77,-269.77 -446.02,-637.78 -540.1,-1024.07l-1563.76 -6418.15c-27.01,-110.83 -39.79,-214.51 -39.79,-310.85 0,-382.65 165.11,-722.88 423.39,-984.64 223.2,-226.27 523.94,-394.54 840.57,-471.69 136.41,-33.2 271.32,-50.98 400.04,-50.98zm15128.49 1460.31l-15128.49 0c-24.17,0 -43.48,1.86 -57.78,5.35 -53.16,12.93 -101.71,37.99 -137.03,70.68l1549.03 6357.71c34.2,140.43 86.84,262.8 157.9,333.86 14.78,14.76 32.13,23.99 51.66,23.99l11531.8 0c11.83,0 25.64,-10.66 39.99,-27.16 72.15,-82.91 131.52,-223.07 180.97,-379.17l2001.5 -6319c-29.46,-21.05 -66.67,-38.99 -107.99,-52.07 -28.92,-9.15 -56.78,-14.19 -81.56,-14.19z"/>
  <path class="fil0" d="M18661.11 16702.37l-3473.63 0 0 -1460.31 3473.63 0 0 1460.31zm-8853.55 0c-835.6,0 -1594.75,-341.33 -2144.62,-891.21 -549.88,-549.87 -891.21,-1309.02 -891.21,-2144.63 0,-835.6 341.33,-1594.75 891.21,-2144.62 549.87,-549.88 1309.02,-891.21 2144.62,-891.21l0 1460.31c-432.51,0 -826.27,177.48 -1112.15,463.37 -285.89,285.88 -463.37,679.64 -463.37,1112.15 0,432.52 177.48,826.28 463.37,1112.16 285.88,285.89 679.64,463.37 1112.15,463.37l0 1460.31z"/>
  <circle class="fil1" cx="12366.15" cy="16058.23" r="1461.33"/>
  <circle class="fil1" cx="20691.59" cy="16058.23" r="1461.33"/>
  <path class="fil0" d="M17035.89 3209.84l-234.56 8251.9 -1454.59 -39.95 234.57 -8251.9 1454.58 39.95z"/>
  <path class="fil0" d="M8609.36 6585.67l15163.9 0 0 1460.31 -15163.9 0 0 -1460.31z"/>
  <path class="fil2" d="M9180.5 6585.67l6303.71 0 75.78 -2665.65 -6815.63 0c-24.17,0 -43.48,1.86 -57.78,5.35 -53.16,12.93 -101.71,37.99 -137.03,70.68l630.95 2589.62z"/>
  <path class="fil2" d="M15442.71 8045.98l-5906.42 0 562.29 2307.78c34.2,140.43 86.84,262.8 157.9,333.86 14.78,14.76 32.13,23.99 51.66,23.99l5058.78 0 75.79 -2665.63z"/>
  <path class="fil2" d="M16898.43 8045.98l-75.78 2665.63 5017.29 0c11.83,0 25.64,-10.66 39.99,-27.16 72.15,-82.91 131.52,-223.07 180.97,-379.17l715.61 -2259.3 -5878.08 0z"/>
  <path class="fil2" d="M16939.93 6585.67l6299.12 0 823.35 -2599.39c-29.46,-21.05 -66.67,-38.99 -107.99,-52.07 -28.92,-9.15 -56.78,-14.19 -81.56,-14.19l-6857.14 0 -75.78 2665.65z"/>
 </g>
</svg>
