<?xml version="1.0" encoding="UTF-8"?>
<!DOCTYPE svg PUBLIC "-//W3C//DTD SVG 1.1//EN" "http://www.w3.org/Graphics/SVG/1.1/DTD/svg11.dtd">
<!-- Creator: CorelDRAW 2019 (64-Bit Evaluation Version) -->
<svg xmlns="http://www.w3.org/2000/svg" xml:space="preserve" width="200mm" height="210mm" version="1.1" style="shape-rendering:geometricPrecision; text-rendering:geometricPrecision; image-rendering:optimizeQuality; fill-rule:evenodd; clip-rule:evenodd"
viewBox="0 0 20000 21000"
 xmlns:xlink="http://www.w3.org/1999/xlink"
 xmlns:xodm="http://www.corel.com/coreldraw/odm/2003">
 <defs>
  <style type="text/css">
   <![CDATA[
    .fil0 {fill:#FF9933}
    .fil1 {fill:#663333;fill-rule:nonzero}
    .fil2 {fill:#663333;fill-rule:nonzero}
    .fil3 {fill:#FF9933;fill-rule:nonzero}
   ]]>
  </style>
 </defs>
 <g id="Layer_x0020_1">
  <metadata id="CorelCorpID_0Corel-Layer"/>
  <g id="_2217627767520">
   <path class="fil0" d="M6443.98 19464.38c-880.99,-359.2 -2360.36,-3424.31 -179.99,-3996.04 1838.65,-482.12 3964.19,-2576.47 4154.71,1365.08 1200.51,-204.4 3104.58,-7966.97 6084.43,-9479.22 1723.38,-874.55 3238.65,-372.6 1714.76,12.76 -1528.56,386.53 -1552.12,703.67 -1923.63,1284.07 -1268.8,1982.27 -1976.38,3241.9 -3117.05,6684.23 -397.49,1199.55 -2150.47,4498.15 -2567.93,4654.14 -1427.6,533.45 -3111.38,1395.45 -4165.3,-525.02z"/>
   <path class="fil1" d="M6317.31 19601.82c-332.96,-169.61 -719.27,-636.83 -992.85,-1202.72 -192.52,-398.15 -333.75,-849.76 -365.55,-1284.1 -33.01,-450.98 51.17,-885.32 314.58,-1230.25 203.15,-266.04 509.5,-473.89 945.96,-588.32 393.22,-103.09 811.85,-288.24 1220.17,-468.81 573.04,-253.41 1126.81,-498.31 1620.88,-522.2 794.28,-38.39 1380.47,453.12 1518.47,2243.28 387.16,-354.91 909.79,-1513.84 1533.79,-2897.82 1097.01,-2433.06 2495.31,-5534.29 4310.32,-6455.37 872.09,-442.55 1702.23,-545.51 2141.99,-488.59 158.38,20.51 280.49,64.13 353.63,123.85 138.14,112.74 156.5,249.02 29.87,395.15 -91.77,105.87 -311.27,218.53 -687.52,313.67 -1281.95,324.12 -1441.06,588.06 -1697.6,1013.76 -35.33,58.6 -72.38,120.07 -119.53,193.74 -631,985.83 -1122.29,1791.52 -1596.15,2775.79 -473.96,984.47 -933.2,2153.3 -1501.42,3868.08 -212.93,642.54 -806.04,1873.02 -1380.02,2913.26 -526.82,954.82 -1054.58,1761.64 -1295.11,1851.5 -110.51,41.29 -233.38,88.85 -357.61,136.91 -1398.15,541.09 -2954.93,1143.12 -3996.3,-690.81zm-672.67 -1357.23c254.17,525.68 597.34,945.25 866.15,1054.83l58.69 23.92 30.41 55.43c891.81,1625.07 2311.68,1075.59 3585.63,582.56 118.42,-45.81 235.75,-91.22 361.8,-138.32 153.6,-57.38 615.5,-798.9 1107.16,-1690.02 564.86,-1023.72 1146.86,-2229.55 1353.6,-2853.41 572.44,-1727.53 1037.36,-2909.77 1519.5,-3911.21 482.25,-1001.67 979.3,-1817.01 1617.02,-2813.38 37.9,-59.22 76.9,-123.92 113.97,-185.39 303.17,-503.09 491.16,-814.96 1916.16,-1175.25 179.94,-45.51 308.62,-88.82 393.1,-128.2 -14.68,-2.5 -30.46,-4.85 -47.31,-7.02 -389.05,-50.36 -1135.11,46.67 -1937.37,453.79 -1702.04,863.75 -3071.58,3901.16 -4146.01,6284.13 -775.51,1720.01 -1403.18,3112.02 -1989.2,3211.78l-197.04 33.56 -9.7 -200.6c-84.07,-1739.5 -539.77,-2211.54 -1163.98,-2181.39 -426.05,20.59 -951.01,252.76 -1494.2,492.96 -418.88,185.24 -848.32,375.16 -1274.47,486.89 -352.36,92.38 -595.47,254.7 -752.45,460.28 -204.82,268.21 -269.33,618.95 -242.2,989.42 28.34,387.06 156.18,793.62 330.74,1154.64z"/>
   <path class="fil1" d="M6987.56 13073.34c323.92,-2450.5 -737,-3439.12 -1911.94,-4533.98 -1514.3,-1411.08 -3210.99,-2992.13 -2565.98,-7871.65l264.12 34.45c-627.01,4743.45 1016.62,6275.04 2483.54,7641.98 1227.71,1144.03 2336.31,2177.07 1994.38,4763.65l-264.12 -34.45z"/>
   <path class="fil2" d="M6675.45 14966.14c698.49,-3698.06 -363.19,-4194.96 -1738.23,-4838.48 -1410.15,-659.94 -3125.4,-1462.7 -3815.07,-5436.8l350.79 -59.86c657.95,3791.38 2280.62,4550.8 3614.65,5175.11 1516.14,709.57 2686.77,1257.45 1937.29,5225.44l-349.43 -65.41z"/>
   <path class="fil3" d="M4673.71 4993.87c-376.71,830.16 -552.46,1847.74 -257.91,2920.6 240.23,875.02 793.85,1790.44 1806.38,2677.48l-233.87 267.3c-1070.01,-937.4 -1657.44,-1913.43 -1914.97,-2851.48 -319.55,-1163.91 -130.52,-2264.25 275.99,-3160.08l324.38 146.18z"/>
  </g>
 </g>
</svg>
