<?xml version="1.0" encoding="UTF-8"?>
<!DOCTYPE svg PUBLIC "-//W3C//DTD SVG 1.1//EN" "http://www.w3.org/Graphics/SVG/1.1/DTD/svg11.dtd">
<!-- Creator: CorelDRAW 2019 (64-Bit Evaluation Version) -->
<svg xmlns="http://www.w3.org/2000/svg" xml:space="preserve" width="210mm" height="297mm" version="1.1" style="shape-rendering:geometricPrecision; text-rendering:geometricPrecision; image-rendering:optimizeQuality; fill-rule:evenodd; clip-rule:evenodd"
viewBox="0 0 21000 29700"
 xmlns:xlink="http://www.w3.org/1999/xlink"
 xmlns:xodm="http://www.corel.com/coreldraw/odm/2003">
 <defs>
  <style type="text/css">
   <![CDATA[
    .str1 {stroke:#999999;stroke-width:52.92;stroke-miterlimit:22.9256}
    .str0 {stroke:black;stroke-width:20;stroke-miterlimit:22.9256}
    .fil10 {fill:none}
    .fil0 {fill:black}
    .fil7 {fill:#D90201}
    .fil4 {fill:gold}
    .fil2 {fill:lime;fill-rule:nonzero}
    .fil1 {fill:#9900CC;fill-rule:nonzero}
    .fil9 {fill:#999999;fill-rule:nonzero}
    .fil6 {fill:#B3B3B3;fill-rule:nonzero}
    .fil5 {fill:#FF6600;fill-rule:nonzero}
    .fil3 {fill:#FF99CC;fill-rule:nonzero}
    .fil8 {fill:white;fill-rule:nonzero}
   ]]>
  </style>
    <mask id="id0">
  <linearGradient id="id1" gradientUnits="userSpaceOnUse" x1="6629.32" y1="5194.78" x2="6663.27" y2="4245.8">
   <stop offset="0" style="stop-opacity:1; stop-color:white"/>
   <stop offset="1" style="stop-opacity:0; stop-color:white"/>
  </linearGradient>
     <rect style="fill:url(#id1)" x="6522.93" y="3269.3" width="212.75" height="3850.94"/>
    </mask>
    <mask id="id2">
  <linearGradient id="id3" gradientUnits="userSpaceOnUse" x1="9056.73" y1="5851.06" x2="9128.09" y2="4666.7">
   <stop offset="0" style="stop-opacity:1; stop-color:white"/>
   <stop offset="1" style="stop-opacity:0; stop-color:white"/>
  </linearGradient>
     <rect style="fill:url(#id3)" x="8988.64" y="3656.64" width="212.75" height="3850.93"/>
    </mask>
    <mask id="id4">
  <linearGradient id="id5" gradientUnits="userSpaceOnUse" x1="10841.61" y1="6534.69" x2="10925.8" y2="5079.24">
   <stop offset="0" style="stop-opacity:1; stop-color:white"/>
   <stop offset="1" style="stop-opacity:0; stop-color:white"/>
  </linearGradient>
     <rect style="fill:url(#id5)" x="10784.96" y="4123.33" width="212.75" height="3850.93"/>
    </mask>
    <mask id="id6">
  <linearGradient id="id7" gradientUnits="userSpaceOnUse" x1="12920.84" y1="6329.28" x2="12994.45" y2="5182.09">
   <stop offset="0" style="stop-opacity:1; stop-color:white"/>
   <stop offset="1" style="stop-opacity:0; stop-color:white"/>
  </linearGradient>
     <rect style="fill:url(#id7)" x="12868.46" y="3821.83" width="212.76" height="3850.93"/>
    </mask>
 </defs>
 <g id="Layer_x0020_1">
  <metadata id="CorelCorpID_0Corel-Layer"/>
  <rect class="fil0 str0" x="-136.15" y="-373.17" width="21135.52" height="30079.83"/>
  <path class="fil1" d="M6212.44 13742.12c-1.37,56.83 -12.32,106.22 -33.06,148.15 -20.76,41.95 -48.34,76.71 -83.37,104.08 -34.83,27.17 -75.21,47.41 -121.37,60.31 -46.16,13.11 -95.53,18.92 -148.13,17.65 -20.15,-0.49 -42.35,-3.78 -66.62,-9.67 -24.05,-5.89 -48.49,-13.26 -73.11,-21.93 -24.62,-8.66 -48.38,-17.92 -71.06,-27.81 -22.9,-9.89 -43.04,-19.28 -60.66,-27.98l33.53 -255.3c34.7,22.06 73.34,38.9 115.92,50.96 42.58,12.06 84.65,18.59 126.02,19.59 8.06,0.19 17.61,0 28.65,-0.37 11.27,-0.36 21.91,-1.81 32.16,-4.74 10.27,-2.93 18.86,-7.4 26.22,-13.37 7.14,-5.98 10.97,-14.8 11.25,-26.47 0.19,-7.84 -2.2,-14.68 -7.15,-20.33 -4.75,-5.62 -11,-10.44 -18.76,-14.24 -7.98,-3.59 -16.82,-6.56 -26.53,-8.7 -9.93,-1.94 -19.64,-3.66 -29.17,-4.74 -9.52,-1.08 -18.42,-1.71 -26.7,-1.91 -8.27,-0.2 -14.84,-0.36 -19.94,-0.48 -35.62,-0.86 -67.93,-7.79 -96.69,-20.8 -28.97,-13.21 -53.57,-31.21 -74.04,-53.77 -20.25,-22.77 -35.95,-49.45 -46.88,-80.06 -10.93,-30.82 -15.86,-63.83 -15,-99.46 1.18,-48.98 12.2,-92.42 32.65,-130.76 20.66,-38.33 47.75,-70.57 81.28,-96.91 33.75,-26.35 72,-46.22 114.99,-59.61 42.98,-13.61 87.27,-19.75 132.87,-18.65 20.36,0.49 41.13,1.84 62.73,3.63 21.61,2 42.96,5.07 64.08,9.4 21.33,4.33 42,9.49 62.23,15.71 20,6.43 39.13,14.1 57.16,23.24l-29.62 251.57c-27.99,-10.01 -57.28,-18.78 -88.09,-25.89 -30.6,-7.31 -60.64,-11.22 -90.12,-11.93 -5.3,-0.13 -12.3,-0.09 -20.8,-0.08 -8.48,0 -17.41,0.43 -26.77,1.05 -9.35,0.84 -18.72,2.3 -28.31,3.98 -9.59,1.89 -18.15,4.45 -25.88,7.87 -7.5,3.42 -13.56,7.95 -18.36,13.56 -4.59,5.62 -6.87,12.35 -6.65,20.42 0.21,9.14 3.43,16.43 9.87,22.3 6.22,5.67 14.39,10.11 24.49,13.54 10.12,3.43 21.09,5.82 33.36,7.38 12.27,1.57 24.34,2.5 36.22,3 12.08,0.5 23.33,0.77 33.51,0.81 10.4,0.04 18.88,0.66 25.64,1.67 33.05,2.71 62.77,10.64 89,23.16 26.23,12.72 48.11,29.16 66.08,49.54 17.98,20.38 31.62,44.27 40.71,72.07 8.87,27.8 13.02,58.24 12.22,91.32zm769.2 -223.76c-0.97,40.08 -7.97,75.56 -20.61,106.44 -12.83,30.67 -30.04,57.62 -51.39,80.46 -21.56,22.81 -46.63,41.94 -75.23,57.17 -28.38,15.44 -58.81,27.65 -91.3,37.05 -32.28,9.4 -65.75,16.02 -100.22,19.86 -34.48,4.05 -68.27,5.77 -101.58,5.4l-6.38 264.65 -289.52 -6.98c1.14,-47.3 2.46,-93.09 3.75,-137.83 1.29,-44.74 2.57,-89.27 3.86,-133.37 1.27,-44.11 2.55,-88.42 3.84,-133.16 1.08,-44.75 2.62,-90.96 4.2,-138.67 2.06,-50.44 3.49,-100.91 4.29,-151.39 0.79,-50.7 3.08,-101.57 6.87,-152.82 53.4,-14.42 106.71,-25.01 159.93,-31.58 53.21,-6.56 107.82,-9.28 164.24,-7.92 31.81,0.77 63.78,4.08 95.47,10.15 31.9,5.87 62.24,14.87 91.02,26.81 29.02,11.73 55.83,26.39 80.45,43.74 24.62,17.36 45.77,38.03 63.45,61.58 17.69,23.55 31.46,50.41 41.35,80.56 9.89,30.16 14.39,63.37 13.51,99.85zm-276.45 14.34c0.65,-26.94 -7.11,-48.13 -23.09,-63.58 -15.96,-15.45 -36.99,-23.6 -63.07,-24.23 -8.7,-0.21 -17.84,0.42 -27.2,1.47 -9.38,1.26 -18.12,2.75 -26.44,4.67l-11.8 181.34c5.7,0.99 11.21,1.55 16.73,1.68 5.3,0.13 10.81,0.26 16.75,0.41 14.85,0.36 29.34,-1.85 43.24,-6.6 14.12,-4.54 26.6,-11.45 37.63,-20.53 10.84,-9.07 19.8,-19.68 26.46,-32.24 6.89,-12.36 10.41,-26.49 10.79,-42.39zm1003.52 74.06c-0.87,36.05 -4.28,72.04 -10.03,107.97 -70.95,2.74 -141.54,8.47 -211.78,16.96 -70.23,8.28 -140.47,16.77 -210.92,25.04 10.1,29.95 26.49,54.33 48.97,72.69 22.68,18.38 49.84,27.93 81.64,28.7 16.76,0.4 34.87,-2.34 54.74,-8.01 19.88,-5.88 39.58,-13.05 59.32,-21.91 19.52,-8.87 38.44,-18.6 56.51,-28.76 18.07,-10.39 33.79,-19.78 46.73,-28.17l-36.71 281.33c-16.42,12.12 -34.07,22.09 -53.16,30.33 -19.08,8.24 -38.77,14.98 -59.26,19.79 -20.49,4.81 -40.94,8.35 -61.79,10.39 -20.85,1.84 -41.03,2.62 -60.96,2.14 -40.94,-0.99 -78.34,-7.41 -112.01,-19.47 -33.66,-12.05 -64.26,-28.28 -91.14,-49.09 -27.08,-20.81 -50.68,-45.14 -70.82,-72.79 -19.92,-27.84 -36.37,-58.16 -49.38,-90.72 -12.79,-32.78 -22.36,-67.17 -28.49,-103.39 -6.34,-36.22 -8.85,-72.79 -7.97,-109.46 0.93,-38.6 5.25,-77.12 13.39,-115.33 7.93,-38.43 19.43,-75.28 34.71,-110.55 15.07,-35.29 33.9,-67.72 56.27,-97.73 22.58,-30.02 48.67,-55.92 78.06,-77.9 29.61,-22.21 62.92,-39.23 99.92,-51.07 37.01,-12.05 77.46,-17.44 121.78,-16.37 36.91,0.89 70.51,6.79 100.6,17.7 30.3,10.71 57.11,25.57 80.43,44.16 23.53,18.62 43.58,40.53 60.59,65.76 17.01,25.24 30.98,52.95 41.51,82.69 10.74,29.97 18.47,61.34 23.19,94.56 4.94,33 6.88,66.58 6.06,100.51zm-247.79 -38.44c0.27,-11.45 -0.72,-23.36 -2.75,-35.71 -2.25,-12.37 -6.01,-23.49 -11.5,-33.6 -5.28,-10.1 -12.5,-18.33 -21.47,-24.91 -8.96,-6.8 -20.13,-10.25 -33.91,-10.58 -16.55,-0.4 -31.29,3.7 -44.02,12.31 -12.94,8.6 -24.03,19.58 -33.47,32.71 -9.45,13.36 -17.22,27.8 -23.54,43.36 -6.11,15.55 -10.69,29.87 -13.99,43.16l184.32 -12.96 0.33 -13.78zm889.28 -293.01l-28.6 261.57c-12.01,-3.47 -23.61,-6.08 -35.25,-7.65 -11.64,-1.55 -23.28,-2.47 -35.38,-2.76 -29.48,-0.71 -57.57,2.43 -84.47,9.22 -26.9,6.77 -50.72,17.66 -71.67,32.43 -20.94,14.77 -37.75,33.89 -50.61,56.92 -12.65,23.03 -19.47,50.66 -20.24,82.47 -0.56,23.32 2.34,43.55 8.72,60.9 6.58,17.34 16,31.78 28.23,43.53 12.46,11.77 27.52,20.61 45.4,26.99 17.89,6.16 37.76,9.61 59.82,10.14 15.28,0.37 31.01,-0.95 47.21,-3.53 16.19,-2.79 32.62,-6.64 48.87,-11.55 16.25,-5.13 31.89,-10.9 47.11,-17.54 15.02,-6.64 28.98,-13.94 42.11,-21.47l-17.01 291.77c-16.32,7.88 -33.89,14.87 -52.71,20.79 -18.81,6.12 -38.05,11.18 -57.88,15.36 -19.84,4.4 -39.66,7.54 -59.23,9.62 -19.78,1.85 -38.69,2.66 -56.51,2.23 -58.74,-1.41 -111.93,-13.73 -159.76,-36.74 -47.61,-23.21 -88.47,-54.12 -122.13,-92.7 -33.65,-38.78 -59.32,-83.54 -77.2,-134.05 -17.88,-50.51 -26.14,-104.17 -24.77,-161 1.64,-67.86 12.72,-131.04 33.43,-189.31 20.72,-58.49 50.38,-108.7 88.96,-151.27 38.38,-42.36 85.65,-75.17 141.61,-98.43 55.94,-23.26 119.65,-34.03 191.35,-32.3 28.63,0.69 57.43,3.5 86.8,8.87 29.37,5.17 57.17,14.32 83.8,27.49zm384.74 -16.82l-63.88 845.07 -262.71 7.46 -4.49 -843.12 331.08 -9.41zm804.85 841.2l-309.15 32.22 -33.94 -141.28 -141.68 -3.42 -34.57 139.63 -316.13 -38.61 267.27 -821.49 345.94 -9.05 222.26 842zm-360.99 -299.61l-41.87 -217.44 -51.24 215.19 93.11 2.25zm925.68 37.18l-32.74 275.26 -524.25 28.3 41.34 -886.56 323.03 7.79 -59.79 569.12 252.41 6.09zm824.61 -4.94l-32.75 275.26 -524.23 28.31c6.02,-144.36 12.25,-288.07 18.67,-430.93 6.63,-142.85 13.91,-286.54 22.07,-430.83l323.03 7.79c-11.74,90.53 -23.05,180.86 -33.93,271.2 -10.87,90.12 -19.23,181.17 -25.26,273.11 19.49,1.32 38.79,2.21 57.88,2.67 18.86,0.45 38.17,0.92 57.68,1.39 23.34,0.56 46.03,0.9 68.32,1 22.49,0.13 45.19,0.46 68.52,1.03zm800.23 -102.5c-0.92,37.75 -6.24,73.9 -15.78,108.68 -9.55,34.78 -22.85,67.35 -39.92,97.49 -17.07,30.35 -37.69,57.86 -61.63,82.75 -24.16,24.88 -50.98,46.09 -80.69,63.62 -29.5,17.53 -61.66,30.98 -96.27,40.33 -34.6,9.35 -71.21,13.56 -109.81,12.63 -37.32,-0.91 -72.63,-6.64 -106.13,-16.99 -33.71,-10.15 -64.78,-24.27 -93.84,-42.15 -29.07,-18.11 -55.08,-39.31 -78.46,-64.06 -23.17,-24.97 -42.89,-52.39 -58.93,-82.27 -16.04,-30.09 -28.21,-62.22 -36.72,-96.37 -8.52,-34.16 -12.33,-69.68 -11.44,-106.58 0.87,-36.05 5.96,-71.15 15.5,-105.72 9.52,-34.36 22.83,-66.49 40.11,-96.85 17.07,-30.13 37.47,-57.87 61.22,-82.96 23.94,-25.1 50.36,-46.74 79.65,-64.71 29.29,-17.97 60.83,-31.64 94.58,-41.21 33.77,-9.59 69.31,-13.83 106.64,-12.93 60.02,1.45 114.52,12.1 163.71,31.96 48.96,19.85 90.54,47.37 124.91,82.79 34.16,35.41 60.3,78.05 78.2,127.5 18.12,49.45 26.55,104.61 25.1,165.05zm-276.34 9.46c0.43,-17.81 -1.69,-35.26 -6.59,-52.14 -4.69,-16.88 -11.97,-31.91 -21.61,-45.3 -9.66,-13.17 -21.71,-24.07 -36.14,-32.48 -14.45,-8.41 -31.32,-12.85 -50.41,-13.31 -19.52,-0.47 -36.99,2.5 -52.43,9.34 -15.45,6.63 -28.82,15.86 -40.15,27.89 -11.33,12.03 -19.94,26.05 -26.27,42.23 -6.12,16.19 -9.51,33.51 -9.95,51.74 -0.42,17.39 1.71,34.85 6.17,52.35 4.67,17.51 11.71,33.38 21.34,47.62 9.63,14.44 21.65,26.2 36.08,35.25 14.64,9.04 31.5,13.69 51.01,14.16 19.52,0.47 37,-2.92 52.88,-10.18 15.67,-7.26 29.07,-17.33 40.21,-30.22 10.91,-12.68 19.54,-27.53 25.89,-44.36 6.14,-16.82 9.53,-34.36 9.97,-52.59zm921.43 -366.92l-28.6 261.56c-12.02,-3.47 -23.62,-6.08 -35.26,-7.64 -11.64,-1.55 -23.28,-2.47 -35.38,-2.76 -29.47,-0.71 -57.56,2.43 -84.47,9.21 -26.9,6.78 -50.72,17.67 -71.67,32.44 -20.93,14.77 -37.74,33.89 -50.6,56.91 -12.66,23.03 -19.48,50.67 -20.24,82.48 -0.57,23.32 2.34,43.55 8.71,60.9 6.59,17.34 16,31.78 28.24,43.53 12.45,11.76 27.51,20.61 45.4,26.98 17.89,6.17 37.75,9.62 59.81,10.15 15.28,0.37 31.01,-0.96 47.21,-3.54 16.2,-2.79 32.63,-6.63 48.87,-11.54 16.25,-5.13 31.89,-10.91 47.12,-17.54 15.02,-6.64 28.98,-13.95 42.11,-21.47l-17.02 291.76c-16.32,7.88 -33.88,14.88 -52.7,20.8 -18.82,6.12 -38.05,11.18 -57.88,15.36 -19.85,4.4 -39.66,7.53 -59.23,9.61 -19.79,1.86 -38.7,2.67 -56.51,2.24 -58.75,-1.42 -111.94,-13.73 -159.77,-36.74 -47.61,-23.22 -88.46,-54.12 -122.13,-92.7 -33.65,-38.79 -59.31,-83.55 -77.19,-134.05 -17.88,-50.51 -26.14,-104.17 -24.77,-161.01 1.63,-67.86 12.71,-131.03 33.43,-189.31 20.72,-58.48 50.37,-108.69 88.96,-151.26 38.38,-42.36 85.64,-75.17 141.6,-98.43 55.95,-23.27 119.66,-34.03 191.35,-32.31 28.64,0.69 57.43,3.51 86.8,8.88 29.38,5.17 57.17,14.32 83.81,27.49zm822.27 65.87l-282.56 320.16 242.09 433.38 -289.69 44.16 -182.6 -260.51 -15.84 243.2 -258.79 3.74 41.4 -889.11 289.13 23.09 -28.66 255.42 186.56 -255.43 298.96 81.9zm-45.88 458.91l1.94 -186.47 401.97 -8.97 -2.59 212.54 -401.32 -17.1zm1183.12 -121.91c-1.4,57.89 -10.07,109.67 -26.24,155.32 -15.96,45.66 -37.73,85.87 -65.31,120.65 -27.58,34.76 -60.12,64.11 -97.62,88.03 -37.51,23.92 -78.31,43.52 -122.59,58.36 -44.29,14.85 -91.23,25.39 -141.05,31.61 -49.59,6.24 -100.59,8.83 -152.76,7.57 -19.52,-0.47 -38.6,-1.36 -57.24,-2.87 -18.42,-1.5 -37.47,-3.66 -56.94,-6.04l36.91 -808.59c45.95,-13.32 93.07,-22.58 141.58,-27.35 48.29,-4.78 96.3,-6.59 144.01,-5.44 59.19,1.42 113.49,11.02 162.73,28.75 49.44,17.75 91.7,43.16 126.98,76.05 35.28,33.1 62.33,73.23 81.34,120.79 18.81,47.34 27.68,101.87 26.2,163.16zm-428.27 228.38c24.91,-3.22 47.79,-10.09 68.43,-21.06 20.85,-10.95 39.01,-24.52 54.26,-40.91 15.24,-16.39 27.16,-35.21 35.74,-56.43 8.78,-21 13.35,-43.6 13.94,-67.77 0.57,-23.54 -1.44,-45.66 -6.04,-66.35 -4.38,-20.48 -12.01,-38.49 -22.89,-54.02 -10.88,-15.33 -25.23,-27.77 -43.25,-37.12 -18.02,-9.34 -40.17,-14.76 -66.68,-16.03l-33.51 359.69zm1234.47 -191.54c-0.91,37.75 -6.24,73.91 -15.78,108.69 -9.54,34.78 -22.84,67.34 -39.92,97.48 -17.07,30.36 -37.68,57.87 -61.62,82.76 -24.17,24.87 -50.99,46.08 -80.7,63.61 -29.49,17.54 -61.65,30.99 -96.27,40.33 -34.6,9.35 -71.21,13.56 -109.8,12.63 -37.33,-0.9 -72.64,-6.63 -106.14,-16.98 -33.71,-10.16 -64.77,-24.27 -93.83,-42.16 -29.07,-18.1 -55.08,-39.31 -78.47,-64.06 -23.17,-24.96 -42.88,-52.39 -58.92,-82.26 -16.04,-30.1 -28.22,-62.22 -36.73,-96.38 -8.52,-34.15 -12.32,-69.67 -11.43,-106.57 0.87,-36.05 5.96,-71.15 15.5,-105.72 9.52,-34.36 22.82,-66.5 40.1,-96.85 17.08,-30.14 37.47,-57.88 61.22,-82.97 23.95,-25.1 50.36,-46.74 79.66,-64.71 29.29,-17.97 60.82,-31.63 94.58,-41.21 33.77,-9.59 69.31,-13.82 106.63,-12.92 60.03,1.44 114.53,12.09 163.71,31.95 48.97,19.86 90.54,47.38 124.91,82.8 34.17,35.4 60.3,78.04 78.21,127.49 18.11,49.45 26.55,104.61 25.09,165.05zm-276.33 9.46c0.43,-17.81 -1.69,-35.26 -6.6,-52.14 -4.68,-16.88 -11.96,-31.91 -21.61,-45.29 -9.65,-13.18 -21.71,-24.07 -36.14,-32.48 -14.44,-8.42 -31.32,-12.85 -50.4,-13.31 -19.52,-0.47 -36.99,2.5 -52.43,9.34 -15.45,6.62 -28.83,15.85 -40.16,27.89 -11.32,12.03 -19.93,26.04 -26.27,42.22 -6.12,16.19 -9.51,33.51 -9.95,51.75 -0.42,17.38 1.71,34.84 6.17,52.34 4.67,17.51 11.71,33.39 21.34,47.62 9.63,14.45 21.65,26.2 36.08,35.25 14.64,9.05 31.51,13.7 51.01,14.17 19.52,0.47 37,-2.92 52.88,-10.18 15.68,-7.27 29.08,-17.34 40.21,-30.22 10.91,-12.68 19.55,-27.54 25.9,-44.36 6.13,-16.83 9.53,-34.36 9.97,-52.6zm1433.75 -368.15l-165.46 832.66 -353.11 -1.1 -65.78 -422.98 -85.1 387.1 -353.23 3.78 -127.3 -802.36 308.85 -19.92 50.31 492.2 94.08 -451.38 242.43 5.85 85.84 462.08 62.22 -520.68 306.25 34.75zm781.52 567.14c-1.13,46.65 -2.67,93.08 -4.83,138.64 -2.16,45.79 -4.76,91.77 -8,138.16l-357.88 -14.78c14.28,-73.08 26.87,-145.98 37.75,-218.91 10.88,-72.73 17.12,-146.63 18.92,-221.07 0.13,-5.51 0.13,-14.21 -0.01,-26.1 -0.13,-12.1 -0.65,-25.69 -1.35,-40.77 -0.91,-15.09 -2.44,-30.82 -4.17,-46.78 -1.96,-15.96 -4.79,-30.67 -8.29,-43.91 -3.71,-13.45 -8.11,-24.38 -13.63,-33.01 -5.31,-8.61 -12,-13.01 -19.84,-13.2 -14,-0.34 -25.97,3.4 -35.93,11.44 -9.96,8.03 -18.28,18.65 -25.16,31.43 -6.69,12.99 -12.13,27.5 -16.12,43.53 -4.21,16.02 -7.36,32.07 -9.66,48.14 -2.29,16.07 -3.93,31.32 -4.92,45.72 -0.76,14.19 -1.47,25.85 -1.69,34.97 -3.89,73.31 -7.34,146.01 -10.15,218.31 -3.02,72.27 -6.48,145.18 -10.38,218.93l-317.2 5.92c11.8,-145.9 23.37,-291.18 34.49,-435.62 11.12,-144.24 20.78,-289.55 28.76,-435.55l293.7 -7.99 -4.95 99.39c12.01,-13.71 24.85,-26.77 38.71,-38.74 13.67,-12.19 28.35,-22.45 43.83,-30.99 15.49,-8.53 31.99,-15.13 49.3,-20.02 17.3,-4.68 35.61,-6.78 54.7,-6.32 35.2,0.85 65.82,7.31 92.05,19.62 26.24,12.08 48.54,28.54 67.15,48.72 18.62,20.4 33.95,44.32 46.24,71.78 12.07,27.45 21.77,56.54 28.87,87.47 7.11,30.73 12.49,62.9 15.72,96.28 3.44,33.41 5.4,66.34 6.11,98.82 0.7,32.27 0.59,63.45 -0.14,93.78 -0.73,30.12 -1.4,57.69 -2,82.71z"/>
  <path class="fil2" d="M5474.81 15778.21c3.09,57.83 -1.53,110.55 -14.08,157.96 -12.36,47.17 -30.91,89.8 -55.68,127.24 -24.77,37.64 -54.88,70.47 -90.35,98.49 -35.47,28.02 -74.58,51.77 -117.53,70.85 -42.97,19.07 -88.92,33.84 -138.07,44.54 -48.92,10.89 -99.56,17.63 -151.67,20.41 -19.5,1.04 -38.6,1.41 -57.3,1.35 -18.49,-0.07 -37.63,-0.54 -57.24,-1.61l-27.06 -833.59c44.77,-17.05 91.05,-29.72 139.04,-38.23 47.76,-8.7 95.49,-14.22 143.15,-16.77 59.11,-3.15 114.03,2.84 164.56,17.99 50.74,15.13 94.9,38.48 132.71,70.03 37.81,31.75 67.96,71.14 90.66,118.37 22.5,47.44 35.6,101.76 38.86,162.97zm-252.33 53.19c-0.76,-22.26 -4.46,-43.73 -10.64,-64 -6.19,-20.49 -15.85,-38.24 -28.35,-53.72 -12.72,-15.25 -28.44,-27.16 -47.18,-35.94 -18.74,-8.77 -40.64,-12.91 -65.89,-12.41l-4.26 385.98c24.59,-4.92 46.62,-14.37 66.28,-27.96 19.66,-13.8 36.21,-30.18 49.84,-49.39 13.85,-19.22 23.99,-40.37 31.05,-63.26 6.84,-23.1 10.06,-46.42 9.62,-70.61l-0.47 -8.69zm593.22 -453.51l1.68 847.47 -261.34 27.75 -69.7 -840.24 329.36 -34.98zm716.11 519.4c3.03,56.77 -4.1,106.22 -21.62,148.37 -17.5,42.14 -42.6,77.47 -75.29,105.98 -32.68,28.5 -71.46,50.33 -116.54,65.48 -45.1,14.93 -93.92,23.92 -146.45,26.72 -20.34,1.08 -42.74,-0.48 -67.17,-4.49 -24.43,-4.01 -49.37,-9.47 -74.59,-16.21 -25.21,-6.72 -49.62,-14.13 -73,-22.23 -23.58,-8.09 -44.4,-15.9 -62.64,-23.21l14.36 -244.63c36.28,19.09 76.12,33.11 119.51,41.84 43.38,8.73 85.82,11.79 127.13,9.58 8.05,-0.42 17.37,-1.13 28.56,-2.37 11.2,-1.24 21.69,-3.71 31.7,-7.22 10,-3.72 18.23,-8.82 25.1,-15.36 6.65,-6.72 9.57,-15.8 8.95,-27.23 -0.41,-7.84 -3.1,-14.5 -8.49,-19.95 -5.17,-5.24 -11.76,-9.36 -20,-12.52 -8.03,-3.19 -17.07,-5.25 -26.92,-6.64 -10.06,-1.37 -19.87,-2.12 -29.45,-2.46 -9.58,-0.34 -18.5,-0.3 -26.76,0.14 -8.26,0.44 -15.04,0.81 -19.92,1.07 -35.59,1.9 -68.3,-1.88 -97.92,-11.55 -29.83,-9.68 -55.67,-24.01 -77.74,-43.44 -22.07,-19.43 -39.5,-43.35 -52.71,-71.97 -13.2,-28.4 -20.66,-60.49 -22.56,-96.08 -2.61,-48.93 4.81,-93.08 22.45,-132.9 17.65,-39.6 42.15,-74.05 73.54,-102.91 31.61,-28.88 68.21,-51.65 110.02,-68.33 41.82,-16.67 85.49,-26.43 131.04,-28.86 20.34,-1.09 41.15,-1.35 62.84,-1.02 21.46,0.13 43.22,1.73 64.6,4.2 21.6,2.67 42.61,6.22 63.26,11.07 20.44,4.65 40.1,10.82 58.78,18.54l-10.06 253.31c-28.69,-8.02 -58.56,-14.5 -89.83,-19.21 -31.06,-4.71 -61.33,-6.5 -90.78,-4.93 -5.3,0.28 -12.28,0.87 -20.73,1.54 -8.47,0.66 -17.34,1.77 -26.6,3.33 -9.26,1.55 -18.72,3.54 -28.14,6.16 -9.22,2.41 -17.75,5.84 -24.98,9.63 -7.22,3.99 -12.91,8.97 -17.27,14.94 -4.14,5.95 -5.89,13.05 -5.04,20.87 0.9,9.08 4.67,15.89 11.28,20.43 6.85,4.73 15.3,7.89 25.59,9.68 10.07,1.58 21.37,2.26 33.66,1.61 12.08,-0.65 24.34,-1.73 36.17,-3 12.04,-1.28 23.25,-2.3 33.38,-3.48 10.35,-1.19 18.81,-1.85 25.61,-1.8 33.17,0.37 63.2,5.78 90.33,16.44 27.12,10.45 50.43,25.35 69.92,44.05 19.49,18.93 34.95,41.9 45.95,68.93 11.22,27.01 17.71,57.05 19.47,90.09zm603.49 -563.67l-8.28 262.99c-12.24,-2.53 -24.01,-4.24 -35.74,-4.89 -11.72,-0.65 -23.4,-0.67 -35.48,-0.02 -29.45,1.57 -57.21,6.87 -83.51,15.72 -26.29,8.83 -49.2,21.53 -68.94,37.87 -19.73,16.35 -35.01,36.71 -46.06,60.66 -10.83,23.95 -15.49,52.02 -13.79,83.8 1.24,23.3 5.7,43.24 13.4,60.04 7.9,16.78 18.41,30.45 31.51,41.22 13.33,10.76 29.03,18.42 47.36,23.39 18.31,4.76 38.38,6.66 60.42,5.49 15.26,-0.82 30.84,-3.35 46.79,-7.17 15.93,-4.04 32.01,-9.14 47.83,-15.29 15.81,-6.37 30.95,-13.34 45.62,-21.13 14.46,-7.79 27.82,-16.15 40.32,-24.67l5.61 292.21c-15.66,9.12 -32.63,17.45 -50.94,24.81 -18.29,7.55 -37.07,14.08 -56.52,19.79 -19.44,5.92 -38.96,10.58 -58.31,14.16 -19.58,3.38 -38.37,5.66 -56.17,6.61 -58.67,3.13 -112.66,-5.04 -162.12,-24.28 -49.27,-19.47 -92.39,-47.12 -128.94,-82.98 -36.55,-36.07 -65.6,-78.71 -87.33,-127.68 -21.74,-48.97 -34.12,-101.84 -37.15,-158.61 -3.62,-67.78 2.54,-131.62 18.68,-191.32 16.14,-59.92 41.82,-112.27 76.99,-157.7 34.99,-45.2 79.58,-81.56 133.57,-109.08 53.98,-27.52 116.66,-43.19 188.28,-47.01 28.6,-1.52 57.53,-0.94 87.22,2.14 29.69,2.88 58.11,9.86 85.68,20.93zm836.17 328.83c2.02,37.7 -0.5,74.16 -7.32,109.57 -6.82,35.42 -17.57,68.92 -32.26,100.29 -14.67,31.58 -33.09,60.6 -55.04,87.27 -22.16,26.67 -47.27,49.89 -75.53,69.66 -28.05,19.77 -59.07,35.66 -92.86,47.66 -33.77,11.99 -69.95,19.02 -108.5,21.08 -37.28,1.99 -72.93,-1 -107.13,-8.73 -34.39,-7.52 -66.46,-19.18 -96.82,-34.77 -30.38,-15.8 -57.95,-34.93 -83.18,-57.8 -25.03,-23.1 -46.81,-48.92 -65.11,-77.46 -18.33,-28.77 -32.95,-59.85 -44.07,-93.25 -11.14,-33.39 -17.68,-68.51 -19.65,-105.37 -1.92,-36.01 0.44,-71.39 7.27,-106.6 6.84,-34.99 17.62,-68.06 32.5,-99.66 14.69,-31.37 32.88,-60.6 54.61,-87.45 21.94,-26.88 46.6,-50.5 74.42,-70.68 27.81,-20.18 58.19,-36.24 91.11,-48.4 32.92,-12.17 68.03,-19.14 105.31,-21.13 59.96,-3.2 115.12,3.2 165.69,19.2 50.35,16.01 93.94,40.23 130.95,72.89 36.79,32.65 66.15,73.15 87.83,121.06 21.88,47.9 34.56,102.24 37.78,162.62zm-274.77 30.8c-0.95,-17.8 -4.41,-35.02 -10.61,-51.48 -5.98,-16.46 -14.4,-30.89 -25.05,-43.49 -10.64,-12.39 -23.5,-22.32 -38.55,-29.58 -15.05,-7.27 -32.21,-10.39 -51.28,-9.38 -19.49,1.04 -36.68,5.36 -51.55,13.37 -14.89,7.8 -27.51,18.04 -37.87,30.91 -10.36,12.87 -17.87,27.51 -22.93,44.14 -4.85,16.61 -6.89,34.14 -5.92,52.35 0.93,17.37 4.4,34.61 10.2,51.71 6.01,17.1 14.26,32.38 24.97,45.83 10.71,13.66 23.61,24.45 38.69,32.35 15.3,7.89 32.47,11.22 51.96,10.18 19.49,-1.04 36.66,-5.77 51.93,-14.24 15.07,-8.45 27.65,-19.53 37.75,-33.23 9.9,-13.49 17.36,-28.97 22.39,-46.23 4.82,-17.25 6.84,-35 5.87,-53.21zm1036.77 -471.02c-10.88,146.52 -19.03,292.46 -24.69,437.21 -5.43,144.95 -10.41,290.72 -14.69,437.31l-253.45 32.22 6.12 -96.13c-7.75,9.97 -17.05,18.75 -27.49,26.32 -10.63,7.78 -21.98,13.92 -34.25,19.03 -12.06,4.89 -24.81,8.76 -38.05,11.38 -13.05,2.6 -25.72,3.92 -37.6,4.13 -28.2,1.07 -54.98,-3.01 -80.34,-12.29 -25.34,-9.05 -48.98,-22.03 -70.46,-38.51 -21.71,-16.48 -41.44,-35.81 -59.21,-58.45 -17.78,-22.41 -33.07,-46.24 -45.89,-71.47 -12.83,-25.45 -22.91,-51.25 -30.28,-77.83 -7.37,-26.59 -11.73,-52.48 -13.07,-77.69 -1.99,-37.27 -3.42,-75.86 -4.06,-115.76 -0.66,-40.12 -0.25,-80.28 1.22,-120.51 1.66,-40.46 4.42,-80.32 8.25,-120.04 4.05,-39.51 9.46,-77.61 16.65,-114.11 50.55,-0.14 101.51,-0.74 152.47,-1.33 50.96,-0.6 101.64,-2.66 152.23,-6.21 -7.62,36.52 -15.23,73.03 -22.62,109.75 -7.39,36.73 -13.7,73.59 -19.17,110.64 -5.45,37.03 -9.64,74.01 -12.13,111.1 -2.69,37.11 -2.83,74.29 -0.82,111.99 0.46,8.69 1.56,21.16 3.05,37.23 1.71,16.05 4.89,31.81 9.11,47.31 4.46,15.69 10.48,29.18 18.31,40.44 8.05,11.47 18.54,16.86 31.67,16.15 15.89,-0.84 29.51,-8.37 41.29,-22.38 11.57,-14.21 21.63,-32.81 29.94,-56.18 8.33,-23.18 14.97,-49.88 20.37,-80.11 5.2,-30.02 9.25,-61.46 12.39,-94.34 2.93,-32.66 4.99,-65.69 6.2,-98.89 1.2,-33.22 1.65,-64.46 1.57,-93.77 -0.29,-29.3 -0.61,-55.41 -1.22,-78.75 -0.6,-23.12 -1.14,-41.15 -1.83,-54.07 -0.44,-8.26 -1.08,-16.29 -1.92,-24.11 -0.84,-7.82 -1.9,-15.83 -3.19,-24.04 26.95,-0.59 53.67,-1.39 80.18,-2.37 26.5,-0.99 53.21,-2.21 80.12,-3.64 20.55,-1.1 41.51,-2.43 62.26,-3.74 20.96,-1.33 41.9,-3.09 63.03,-5.49zm837.27 516.77c2.49,46.6 4.54,93.01 5.92,138.6 1.38,45.82 2.34,91.86 2.7,138.37l-357.95 12.93c8.59,-73.96 15.49,-147.61 20.7,-221.17 5.22,-73.36 5.73,-147.52 1.76,-221.87 -0.29,-5.51 -0.96,-14.18 -2.03,-26.02 -1.06,-12.05 -2.63,-25.57 -4.49,-40.55 -2.07,-14.97 -4.82,-30.54 -7.78,-46.31 -3.19,-15.76 -7.14,-30.21 -11.66,-43.14 -4.74,-13.13 -9.98,-23.68 -16.14,-31.86 -5.97,-8.17 -12.98,-12.04 -20.81,-11.63 -13.98,0.75 -25.63,5.41 -34.94,14.19 -9.31,8.77 -16.78,20.01 -22.65,33.28 -5.66,13.47 -9.97,28.36 -12.7,44.65 -2.96,16.3 -4.86,32.55 -5.91,48.74 -1.04,16.2 -1.5,31.53 -1.37,45.96 0.34,14.21 0.53,25.89 1.02,35 1.79,73.4 3.98,146.14 6.77,218.44 2.58,72.29 4.77,145.25 6.59,219.08l-315.8 30.43c0.48,-146.38 0.78,-292.11 0.69,-436.98 -0.07,-144.67 -1.68,-290.3 -5.01,-436.48l292.19 -30.67 2.76 99.48c10.91,-14.6 22.7,-28.61 35.6,-41.63 12.69,-13.2 26.52,-24.56 41.3,-34.28 14.79,-9.7 30.72,-17.56 47.6,-23.77 16.89,-6 34.98,-9.51 54.04,-10.53 35.17,-1.87 66.2,2.2 93.3,12.44 27.1,10.02 50.61,24.7 70.72,43.38 20.14,18.9 37.28,41.57 51.65,67.99 14.16,26.43 26.08,54.69 35.55,84.97 9.47,30.09 17.32,61.75 23.12,94.79 6.02,33.03 10.52,65.72 13.74,98.05 3.19,32.11 5.49,63.21 7.11,93.51 1.61,30.08 3.08,57.62 4.41,82.61zm685.73 -599.29l7.89 263.4 -184.55 17.28 8.27 577.14 -261.12 27.74 -54.26 -574.69 -184.63 19.84 -8.01 -293.35 676.41 -37.36zm607.9 -31.16l1.67 847.48 -261.34 27.75 -69.7 -840.24 329.37 -34.99zm850.41 516.07c2.49,46.6 4.55,93.01 5.92,138.6 1.38,45.82 2.35,91.86 2.7,138.37l-357.94 12.93c8.58,-73.96 15.49,-147.61 20.7,-221.17 5.22,-73.36 5.73,-147.52 1.76,-221.87 -0.3,-5.5 -0.97,-14.18 -2.03,-26.02 -1.07,-12.05 -2.64,-25.57 -4.5,-40.55 -2.07,-14.97 -4.82,-30.54 -7.78,-46.31 -3.19,-15.76 -7.14,-30.21 -11.66,-43.14 -4.73,-13.13 -9.98,-23.68 -16.14,-31.86 -5.97,-8.17 -12.97,-12.04 -20.8,-11.62 -13.99,0.74 -25.64,5.4 -34.95,14.18 -9.3,8.78 -16.78,20.01 -22.65,33.28 -5.66,13.47 -9.96,28.36 -12.7,44.65 -2.96,16.3 -4.85,32.55 -5.9,48.75 -1.05,16.19 -1.5,31.52 -1.38,45.95 0.34,14.22 0.53,25.89 1.02,35 1.79,73.4 3.98,146.14 6.77,218.44 2.59,72.29 4.78,145.25 6.59,219.08l-315.79 30.44c0.48,-146.39 0.77,-292.12 0.68,-436.99 -0.06,-144.66 -1.68,-290.29 -5.01,-436.47l292.2 -30.67 2.75 99.47c10.91,-14.6 22.7,-28.61 35.6,-41.63 12.69,-13.2 26.53,-24.56 41.3,-34.27 14.79,-9.71 30.73,-17.57 47.6,-23.78 16.89,-6 34.98,-9.51 54.05,-10.53 35.16,-1.87 66.19,2.2 93.29,12.44 27.1,10.02 50.61,24.7 70.73,43.38 20.14,18.9 37.27,41.57 51.64,67.99 14.16,26.43 26.09,54.69 35.56,84.98 9.47,30.08 17.32,61.74 23.11,94.78 6.02,33.04 10.52,65.72 13.74,98.05 3.2,32.11 5.5,63.21 7.12,93.51 1.6,30.08 3.07,57.62 4.4,82.61zm989.35 -240.77c1.92,36.01 1.31,72.15 -1.65,108.42 -70.52,8.22 -140.46,19.39 -209.83,33.28 -69.38,13.69 -138.75,27.59 -208.36,41.28 12.39,29.08 30.62,52.12 54.45,68.69 24.04,16.56 51.85,23.99 83.62,22.3 16.74,-0.9 34.58,-5.03 53.96,-12.23 19.37,-7.4 38.45,-16.07 57.44,-26.42 18.78,-10.36 36.89,-21.52 54.12,-33.05 17.21,-11.76 32.16,-22.33 44.41,-31.69l-14.83 283.32c-15.44,13.35 -32.26,24.65 -50.66,34.35 -18.39,9.69 -37.49,17.93 -57.55,24.31 -20.06,6.38 -40.18,11.49 -60.81,15.14 -20.63,3.44 -40.69,5.78 -60.61,6.85 -40.89,2.18 -78.68,-1.33 -113.17,-10.75 -34.5,-9.42 -66.26,-23.23 -94.67,-41.9 -28.61,-18.65 -54.02,-41.09 -76.24,-67.09 -22.01,-26.23 -40.76,-55.18 -56.25,-86.64 -15.29,-31.69 -27.49,-65.24 -36.41,-100.87 -9.12,-35.63 -14.45,-71.88 -16.4,-108.52 -2.06,-38.56 -0.73,-77.29 4.42,-116.01 4.93,-38.93 13.55,-76.56 26.06,-112.91 12.29,-36.35 28.56,-70.14 48.53,-101.79 20.2,-31.67 44.2,-59.51 71.81,-83.7 27.8,-24.43 59.69,-43.98 95.67,-58.64 35.96,-14.88 75.87,-23.38 120.15,-25.74 36.86,-1.97 70.82,1.32 101.66,9.87 31.04,8.33 58.92,21.07 83.61,37.81 24.9,16.73 46.59,37.03 65.5,60.87 18.91,23.85 34.98,50.39 47.78,79.23 13.03,29.05 23.16,59.73 30.43,92.48 7.48,32.53 12.01,65.86 13.82,99.75zm-250.02 -19.17c-0.61,-11.43 -2.53,-23.23 -5.51,-35.39 -3.19,-12.16 -7.8,-22.95 -14.06,-32.61 -6.04,-9.66 -13.88,-17.31 -23.33,-23.18 -9.46,-6.08 -20.87,-8.66 -34.63,-7.92 -16.53,0.88 -30.91,6.11 -42.93,15.68 -12.24,9.57 -22.45,21.37 -30.85,35.2 -8.38,14.05 -15.01,29.05 -20.11,45.05 -4.89,15.98 -8.35,30.6 -10.61,44.11l182.76 -27.17 -0.73 -13.77zm1062.91 425.08l-305.73 56.03 -44.77 -138.24 -141.52 7.55 -23.66 141.89 -318.17 -14.04 202.91 -839.71 344.2 -35.77 286.74 822.29zm-383.09 -270.8l-58.56 -213.55 -34.44 218.51 93 -4.96zm929.67 -554.95l-8.28 262.99c-12.24,-2.53 -24.01,-4.23 -35.74,-4.89 -11.72,-0.65 -23.4,-0.66 -35.48,-0.02 -29.45,1.57 -57.21,6.88 -83.51,15.72 -26.29,8.84 -49.2,21.53 -68.94,37.88 -19.74,16.34 -35.01,36.71 -46.06,60.66 -10.83,23.94 -15.49,52.02 -13.79,83.79 1.24,23.3 5.7,43.24 13.4,60.04 7.9,16.79 18.41,30.46 31.51,41.22 13.33,10.77 29.03,18.42 47.36,23.39 18.31,4.77 38.38,6.67 60.42,5.49 15.26,-0.81 30.84,-3.34 46.79,-7.17 15.93,-4.03 32.01,-9.14 47.83,-15.29 15.81,-6.37 30.95,-13.34 45.62,-21.13 14.46,-7.78 27.81,-16.14 40.32,-24.66l5.61 292.2c-15.66,9.12 -32.63,17.46 -50.94,24.81 -18.29,7.56 -37.07,14.09 -56.52,19.79 -19.44,5.93 -38.96,10.58 -58.31,14.17 -19.58,3.38 -38.37,5.65 -56.17,6.6 -58.67,3.13 -112.66,-5.04 -162.12,-24.28 -49.27,-19.46 -92.39,-47.11 -128.94,-82.98 -36.55,-36.06 -65.6,-78.7 -87.33,-127.68 -21.74,-48.97 -34.13,-101.83 -37.15,-158.6 -3.62,-67.79 2.54,-131.62 18.68,-191.33 16.13,-59.91 41.82,-112.27 76.99,-157.7 34.99,-45.19 79.58,-81.56 133.57,-109.08 53.98,-27.52 116.66,-43.18 188.28,-47 28.6,-1.53 57.53,-0.95 87.22,2.13 29.69,2.89 58.11,9.86 85.68,20.93zm840.31 780.43l-309.59 31.39 -16.51 -261.67 -142.59 7.61 5.82 272.22 -278.17 14.84 -23.05 -873.74 296.28 -2.21 5.13 446.66 137.71 -7.34 -23.63 -466.71 283.45 -7.69 65.15 846.64zm1336.81 -99.98l-305.73 56.02 -44.77 -138.23 -141.52 7.55 -23.66 141.88 -318.17 -14.04 202.91 -839.7 344.2 -35.77 286.74 822.29zm-383.09 -270.8l-58.56 -213.55 -34.44 218.51 93 -4.96zm1152.43 -31.53c2.49,46.6 4.54,93.01 5.92,138.61 1.38,45.81 2.34,91.85 2.7,138.36l-357.95 12.94c8.59,-73.97 15.49,-147.62 20.7,-221.18 5.22,-73.35 5.73,-147.52 1.76,-221.87 -0.29,-5.5 -0.96,-14.18 -2.02,-26.02 -1.07,-12.05 -2.64,-25.56 -4.5,-40.55 -2.07,-14.97 -4.82,-30.53 -7.78,-46.31 -3.19,-15.76 -7.14,-30.21 -11.66,-43.14 -4.74,-13.12 -9.98,-23.68 -16.14,-31.85 -5.97,-8.18 -12.98,-12.05 -20.81,-11.63 -13.98,0.74 -25.63,5.4 -34.94,14.18 -9.3,8.78 -16.78,20.01 -22.65,33.28 -5.66,13.47 -9.97,28.36 -12.7,44.65 -2.96,16.3 -4.86,32.55 -5.9,48.75 -1.05,16.2 -1.51,31.52 -1.38,45.96 0.34,14.21 0.53,25.88 1.02,34.99 1.79,73.4 3.98,146.15 6.77,218.44 2.58,72.3 4.78,145.25 6.59,219.08l-315.8 30.44c0.49,-146.39 0.78,-292.12 0.69,-436.99 -0.07,-144.66 -1.68,-290.29 -5.01,-436.47l292.19 -30.67 2.76 99.47c10.91,-14.6 22.7,-28.61 35.6,-41.62 12.69,-13.21 26.52,-24.57 41.3,-34.28 14.79,-9.7 30.72,-17.56 47.6,-23.78 16.89,-6 34.98,-9.51 54.05,-10.53 35.16,-1.87 66.19,2.2 93.29,12.44 27.1,10.02 50.61,24.7 70.72,43.39 20.14,18.89 37.28,41.56 51.65,67.98 14.16,26.43 26.09,54.69 35.55,84.98 9.47,30.09 17.32,61.74 23.12,94.78 6.02,33.04 10.52,65.72 13.74,98.05 3.19,32.11 5.5,63.22 7.11,93.51 1.61,30.08 3.08,57.62 4.41,82.61zm752.1 -219.41c3.09,57.83 -1.55,110.12 -14.14,156.88 -12.38,46.76 -30.97,88.54 -55.78,125.34 -24.81,36.8 -54.98,68.57 -90.52,95.32 -35.54,26.75 -74.71,49.44 -117.7,67.67 -43.01,18.22 -89,32.36 -138.19,42.42 -48.96,10.05 -99.6,16.58 -151.72,19.36 -19.5,1.04 -38.58,1.63 -57.29,1.56 -18.48,-0.07 -37.64,-0.75 -57.24,-1.62l-25.74 -809.02c44.77,-16.83 91.04,-29.71 139.03,-38.22 47.78,-8.5 95.5,-14.02 143.16,-16.56 59.12,-3.15 114,2.21 164.46,16.08 50.67,13.87 94.77,35.95 132.49,66.01 37.74,30.27 67.81,68.18 90.44,114.13 22.42,45.75 35.48,99.43 38.74,160.65zm-409.31 260.81c24.59,-5.13 46.86,-13.75 66.59,-26.28 19.94,-12.53 36.99,-27.46 50.93,-44.99 13.93,-17.52 24.36,-37.2 31.27,-59.02 7.13,-21.62 9.94,-44.5 8.65,-68.65 -1.25,-23.51 -4.96,-45.41 -11.14,-65.68 -5.96,-20.08 -14.96,-37.44 -27.01,-52.09 -12.03,-14.44 -27.3,-25.73 -45.99,-33.66 -18.69,-7.93 -41.2,-11.61 -67.72,-10.83l-5.58 361.2z"/>
  <path class="fil3" d="M7588.41 17204.97c-1.47,36.03 -5.48,71.96 -11.83,107.79 -70.99,1.55 -141.67,6.1 -212.04,13.41 -70.36,7.11 -140.73,14.42 -211.31,21.51 9.6,30.12 25.58,54.76 47.74,73.5 22.38,18.75 49.37,28.76 81.16,30.06 16.75,0.69 34.9,-1.76 54.86,-7.09 19.98,-5.55 39.79,-12.39 59.68,-20.92 19.67,-8.54 38.74,-17.95 56.98,-27.81 18.24,-10.09 34.12,-19.21 47.2,-27.38l-41.41 280.67c-16.62,11.85 -34.44,21.52 -53.66,29.44 -19.22,7.92 -39.01,14.33 -59.59,18.79 -20.56,4.48 -41.07,7.67 -61.95,9.36 -20.88,1.49 -41.06,1.94 -60.99,1.12 -40.92,-1.67 -78.21,-8.72 -111.67,-21.33 -33.45,-12.62 -63.77,-29.36 -90.3,-50.61 -26.73,-21.26 -49.92,-45.99 -69.59,-73.97 -19.45,-28.17 -35.4,-58.76 -47.86,-91.54 -12.24,-32.98 -21.24,-67.53 -26.76,-103.85 -5.73,-36.32 -7.63,-72.92 -6.13,-109.58 1.57,-38.57 6.54,-77.01 15.31,-115.08 8.57,-38.29 20.69,-74.95 36.56,-109.96 15.66,-35.03 35.03,-67.14 57.89,-96.77 23.08,-29.64 49.6,-55.1 79.36,-76.59 29.98,-21.7 63.56,-38.17 100.76,-49.39 37.2,-11.43 77.74,-16.14 122.04,-14.33 36.88,1.51 70.39,7.97 100.28,19.38 30.12,11.21 56.68,26.52 79.68,45.5 23.22,19.01 42.9,41.25 59.49,66.77 16.58,25.52 30.09,53.45 40.12,83.37 10.24,30.14 17.44,61.64 21.6,94.93 4.39,33.08 5.76,66.69 4.38,100.6zm-247.12 -42.58c0.47,-11.44 -0.32,-23.37 -2.15,-35.75 -2.03,-12.4 -5.61,-23.59 -10.93,-33.79 -5.11,-10.18 -12.2,-18.54 -21.05,-25.27 -8.85,-6.94 -19.96,-10.58 -33.73,-11.14 -16.54,-0.68 -31.35,3.18 -44.22,11.57 -13.08,8.38 -24.36,19.17 -34.02,32.15 -9.66,13.2 -17.68,27.51 -24.25,42.96 -6.37,15.45 -11.2,29.68 -14.71,42.92l184.5 -9.88 0.56 -13.77zm1051.42 -293.96l-261.55 830.02 -308.73 4.79 -246.46 -822.33 295.56 -15.31 100.06 476.89 136.34 -504.38 284.78 30.32zm665.6 396.6c-1.47,36.03 -5.48,71.95 -11.83,107.78 -70.98,1.56 -141.66,6.11 -212.03,13.42 -70.37,7.1 -140.74,14.42 -211.32,21.51 9.6,30.12 25.58,54.76 47.75,73.5 22.38,18.75 49.37,28.76 81.15,30.06 16.75,0.68 34.9,-1.76 54.87,-7.1 19.98,-5.55 39.79,-12.38 59.68,-20.91 19.67,-8.54 38.74,-17.95 56.98,-27.82 18.24,-10.08 34.12,-19.2 47.2,-27.37l-41.42 280.67c-16.62,11.84 -34.43,21.51 -53.65,29.44 -19.23,7.92 -39.02,14.33 -59.59,18.79 -20.57,4.47 -41.08,7.67 -61.96,9.36 -20.87,1.49 -41.06,1.93 -60.99,1.12 -40.91,-1.67 -78.2,-8.72 -111.66,-21.34 -33.46,-12.61 -63.78,-29.36 -90.31,-50.61 -26.72,-21.26 -49.92,-45.98 -69.59,-73.96 -19.45,-28.18 -35.39,-58.76 -47.86,-91.54 -12.23,-32.99 -21.23,-67.53 -26.76,-103.85 -5.73,-36.32 -7.63,-72.92 -6.13,-109.58 1.58,-38.58 6.54,-77.02 15.32,-115.08 8.57,-38.29 20.69,-74.95 36.55,-109.96 15.66,-35.03 35.03,-67.15 57.9,-96.78 23.08,-29.63 49.6,-55.09 79.35,-76.58 29.98,-21.71 63.57,-38.17 100.76,-49.39 37.21,-11.43 77.74,-16.14 122.04,-14.33 36.89,1.51 70.39,7.97 100.29,19.38 30.12,11.21 56.67,26.52 79.68,45.5 23.22,19.01 42.9,41.25 59.49,66.77 16.58,25.51 30.08,53.45 40.11,83.36 10.24,30.15 17.44,61.65 21.61,94.93 4.38,33.09 5.76,66.7 4.37,100.61zm-247.11 -42.59c0.47,-11.44 -0.33,-23.36 -2.15,-35.74 -2.04,-12.41 -5.61,-23.59 -10.93,-33.79 -5.11,-10.19 -12.2,-18.54 -21.05,-25.27 -8.85,-6.95 -19.96,-10.58 -33.73,-11.15 -16.54,-0.67 -31.36,3.19 -44.22,11.58 -13.09,8.38 -24.36,19.17 -34.02,32.15 -9.67,13.19 -17.68,27.51 -24.26,42.95 -6.37,15.46 -11.19,29.69 -14.71,42.93l184.51 -9.88 0.56 -13.78zm1019.31 -22.88c-1.32,32.21 -5.27,61.34 -12.06,87.4 -6.59,26.05 -16.27,49.85 -29.26,71.4 -12.97,21.34 -29.27,41.05 -49.11,58.93 -19.84,17.87 -43.47,34.74 -71.08,50.6l136.99 269.26 -281.63 43.27 -84.8 -268.41 -77.04 -0.82 -21.8 257.91 -267.1 -10.92c5.98,-94.22 11.73,-188.25 17.46,-281.64 5.73,-93.39 11.7,-187.41 18.09,-281.62 2.59,-47.66 5.36,-94.68 8.13,-141.48 2.75,-46.81 6.37,-93.79 10.87,-141.38 29.27,-9.63 58.25,-17.36 86.73,-23.2 28.48,-5.85 56.9,-10.2 85.47,-13.07 28.56,-2.65 57.51,-4.23 86.61,-4.52 29.31,-0.3 59.23,0.29 89.75,1.54 47.28,1.93 92.79,10.37 136.36,25.1 43.56,14.94 81.77,36.04 114.62,63.49 32.85,27.46 58.65,61.21 77.62,100.83 18.97,39.84 27.29,85.61 25.18,137.33zm-278.94 8.56c0.72,-17.6 -1.17,-33.6 -5.24,-48.2 -4.29,-14.62 -10.77,-27.61 -19.68,-38.38 -8.89,-10.98 -19.99,-19.72 -33.73,-26.43 -13.54,-6.5 -29.75,-10.14 -48.4,-10.9 -8.26,-0.33 -16.34,-0.23 -24.22,0.5 -7.89,0.74 -15.59,2.13 -23.09,3.73l-19.4 230.62 14.84 0.6c17.8,0.73 35.91,-0.87 54.54,-4.57 18.63,-3.91 35.45,-10.23 50.68,-19.15 15.01,-8.95 27.59,-20.53 37.54,-35.2 9.93,-14.46 15.32,-32.07 16.16,-52.62zm1084.42 -218.32l-311.39 464.96 -5.67 351.75 -319.26 -13.04 21.69 -348.56 -208.42 -470.05 318.32 -26.7 88.47 272.18 118.86 -263.7 297.4 33.16zm965.45 308.22c-1.64,40.06 -9.24,75.42 -22.39,106.09 -13.34,30.45 -31,57.11 -52.73,79.58 -21.94,22.46 -47.33,41.17 -76.17,55.91 -28.64,14.96 -59.27,26.66 -91.92,35.52 -32.42,8.86 -66,14.92 -100.53,18.18 -34.55,3.47 -68.36,4.63 -101.66,3.7l-10.81 264.51 -289.35 -11.82c1.93,-47.27 4.01,-93.04 6.05,-137.75 2.04,-44.71 4.06,-89.22 6.09,-133.29 2.01,-44.08 4.03,-88.36 6.07,-133.08 1.82,-44.72 4.14,-90.9 6.51,-138.58 2.91,-50.4 5.18,-100.84 6.83,-151.29 1.64,-50.68 4.78,-101.5 9.42,-152.69 53.64,-13.52 107.12,-23.22 160.43,-28.9 53.32,-5.67 107.97,-7.47 164.35,-5.16 31.8,1.29 63.71,5.14 95.29,11.74 31.8,6.4 61.99,15.91 90.57,28.33 28.81,12.21 55.37,27.31 79.7,45.08 24.33,17.77 45.13,38.78 62.42,62.63 17.28,23.84 30.61,50.93 39.99,81.24 9.38,30.32 13.33,63.6 11.84,100.05zm-276.65 9.72c1.1,-26.92 -6.31,-48.24 -22.02,-63.95 -15.71,-15.72 -36.59,-24.22 -62.67,-25.28 -8.69,-0.36 -17.84,0.12 -27.22,1.01 -9.39,1.1 -18.15,2.45 -26.51,4.23l-14.83 181.11c5.69,1.09 11.18,1.74 16.7,1.97 5.3,0.21 10.8,0.44 16.74,0.68 14.84,0.61 29.37,-1.35 43.34,-5.87 14.19,-4.31 26.79,-11.01 37.98,-19.9 10.98,-8.89 20.12,-19.35 26.99,-31.8 7.09,-12.24 10.85,-26.3 11.5,-42.2zm1040.86 -4.6c-1.31,32.21 -5.27,61.34 -12.06,87.4 -6.59,26.05 -16.27,49.86 -29.25,71.4 -12.98,21.34 -29.28,41.05 -49.12,58.93 -19.84,17.87 -43.46,34.74 -71.08,50.6l137 269.26 -281.64 43.27 -84.8 -268.41 -77.04 -0.82 -21.8 257.91 -267.09 -10.92c5.97,-94.22 11.73,-188.25 17.45,-281.64 5.73,-93.39 11.7,-187.41 18.09,-281.61 2.59,-47.67 5.36,-94.68 8.13,-141.49 2.75,-46.81 6.37,-93.79 10.87,-141.37 29.27,-9.64 58.25,-17.37 86.73,-23.21 28.49,-5.85 56.9,-10.2 85.47,-13.07 28.57,-2.65 57.51,-4.23 86.61,-4.52 29.31,-0.3 59.23,0.3 89.75,1.54 47.28,1.93 92.79,10.37 136.37,25.1 43.55,14.94 81.76,36.04 114.61,63.49 32.85,27.46 58.65,61.21 77.62,100.83 18.98,39.84 27.3,85.61 25.18,137.33zm-278.93 8.56c0.72,-17.6 -1.18,-33.6 -5.25,-48.2 -4.29,-14.61 -10.76,-27.61 -19.67,-38.38 -8.89,-10.97 -20,-19.72 -33.74,-26.43 -13.54,-6.5 -29.75,-10.13 -48.39,-10.9 -8.27,-0.33 -16.35,-0.23 -24.23,0.51 -7.89,0.73 -15.59,2.12 -23.08,3.72l-19.41 230.62 14.84 0.6c17.8,0.73 35.91,-0.87 54.54,-4.57 18.63,-3.91 35.46,-10.23 50.69,-19.15 15.01,-8.95 27.58,-20.53 37.53,-35.2 9.93,-14.46 15.33,-32.07 16.17,-52.62zm1084.54 147.49c-1.54,37.72 -7.47,73.78 -17.6,108.4 -10.12,34.61 -23.97,66.95 -41.54,96.8 -17.58,30.07 -38.65,57.23 -63,81.72 -24.58,24.47 -51.75,45.22 -81.75,62.25 -29.79,17.04 -62.17,29.95 -96.93,38.72 -34.75,8.77 -71.43,12.36 -110,10.79 -37.31,-1.53 -72.52,-7.85 -105.84,-18.76 -33.53,-10.72 -64.36,-25.35 -93.12,-43.72 -28.76,-18.59 -54.41,-40.22 -77.38,-65.36 -22.74,-25.35 -42,-53.1 -57.54,-83.24 -15.53,-30.36 -27.17,-62.68 -35.1,-96.97 -7.95,-34.3 -11.16,-69.88 -9.65,-106.76 1.47,-36.03 7.14,-71.03 17.26,-105.44 10.1,-34.2 23.93,-66.11 41.72,-96.17 17.58,-29.84 38.44,-57.24 62.6,-81.93 24.36,-24.7 51.13,-45.89 80.73,-63.37 29.58,-17.47 61.34,-30.61 95.25,-39.62 33.93,-9.02 69.53,-12.66 106.84,-11.14 59.99,2.45 114.3,14.01 163.15,34.69 48.63,20.67 89.74,48.88 123.51,84.87 33.57,35.97 58.98,79.05 76.06,128.79 17.29,49.74 24.8,105.04 22.33,165.45zm-276.45 4.83c0.72,-17.8 -1.1,-35.28 -5.73,-52.24 -4.4,-16.96 -11.43,-32.11 -20.84,-45.65 -9.44,-13.34 -21.31,-24.43 -35.6,-33.08 -14.3,-8.65 -31.1,-13.37 -50.17,-14.15 -19.51,-0.8 -37.03,1.88 -52.58,8.46 -15.56,6.37 -29.09,15.37 -40.62,27.21 -11.52,11.84 -20.37,25.71 -26.97,41.79 -6.39,16.08 -10.07,33.34 -10.82,51.57 -0.71,17.37 1.13,34.86 5.3,52.44 4.37,17.58 11.15,33.57 20.54,47.97 9.38,14.6 21.21,26.55 35.48,35.84 14.49,9.29 31.28,14.22 50.77,15.02 19.51,0.8 37.04,-2.3 53.05,-9.29 15.79,-7 29.35,-16.85 40.7,-29.55 11.13,-12.49 20.01,-27.2 26.64,-43.92 6.41,-16.72 10.1,-34.19 10.85,-52.42zm1024.2 8.3c-2.37,57.86 -11.9,109.49 -28.83,154.86 -16.72,45.39 -39.16,85.24 -67.32,119.55 -28.16,34.29 -61.18,63.09 -99.08,86.38 -37.9,23.3 -79.03,42.2 -123.55,56.31 -44.53,14.1 -91.65,23.85 -141.56,29.24 -49.69,5.41 -100.72,7.15 -152.87,5.02 -19.51,-0.8 -38.57,-2.01 -57.18,-3.83 -18.4,-1.81 -37.41,-4.29 -56.84,-7l50.44 -807.85c46.16,-12.55 93.44,-21.03 142.02,-24.99 48.36,-3.97 96.39,-4.98 144.08,-3.03 59.15,2.42 113.29,12.92 162.22,31.47 49.14,18.57 90.97,44.69 125.7,78.17 34.72,33.68 61.09,74.25 79.3,122.13 18.02,47.65 25.97,102.32 23.47,163.57zm-432.03 221.19c24.96,-2.8 47.95,-9.29 68.77,-19.91 21.03,-10.6 39.41,-23.86 54.94,-40 15.51,-16.13 27.74,-34.75 36.67,-55.82 9.13,-20.85 14.09,-43.37 15.08,-67.53 0.96,-23.53 -0.68,-45.68 -4.93,-66.44 -4.04,-20.55 -11.37,-38.68 -21.99,-54.4 -10.61,-15.51 -24.75,-28.18 -42.62,-37.83 -17.86,-9.65 -39.92,-15.43 -66.39,-17.15l-39.53 359.08zm1226.45 -570.65c-24.61,144.85 -46.44,289.38 -65.68,432.95 -19.04,143.8 -37.7,288.46 -55.75,434l-255.36 8.25 15.14 -95.13c-8.65,9.2 -18.75,17.07 -29.84,23.62 -11.32,6.75 -23.2,11.79 -35.89,15.73 -12.47,3.73 -25.53,6.39 -38.96,7.75 -13.23,1.37 -25.97,1.49 -37.82,0.58 -28.18,-1.58 -54.45,-8.17 -78.83,-19.78 -24.38,-11.4 -46.69,-26.54 -66.53,-44.97 -20.06,-18.44 -37.88,-39.55 -53.45,-63.75 -15.59,-23.99 -28.57,-49.15 -38.96,-75.48 -10.39,-26.53 -18,-53.17 -22.83,-80.33 -4.84,-27.16 -6.74,-53.34 -5.71,-78.56 1.53,-37.3 3.73,-75.85 6.85,-115.64 3.12,-40 7.3,-79.95 12.55,-119.86 5.45,-40.12 11.95,-79.55 19.49,-118.73 7.75,-38.96 16.72,-76.38 27.31,-112.04 50.34,4.61 101.13,8.81 151.92,13 50.79,4.2 101.43,6.91 152.14,8.13 -11.02,35.64 -22.03,71.28 -32.84,107.14 -10.81,35.87 -20.56,71.98 -29.49,108.35 -8.91,36.35 -16.55,72.77 -22.52,109.47 -6.17,36.69 -9.81,73.69 -11.35,111.42 -0.36,8.69 -0.44,21.21 -0.47,37.34 0.2,16.14 1.88,32.13 4.63,47.96 2.96,16.04 7.69,30.04 14.42,41.98 6.94,12.18 16.87,18.53 30.01,19.06 15.9,0.65 30.17,-5.56 43.22,-18.4 12.86,-13.06 24.62,-30.63 35.08,-53.12 10.48,-22.29 19.61,-48.25 27.82,-77.84 8,-29.4 14.99,-60.32 21.2,-92.76 5.99,-32.23 11.15,-64.93 15.47,-97.87 4.32,-32.95 7.71,-64.02 10.39,-93.21 2.46,-29.19 4.6,-55.21 6.18,-78.51 1.59,-23.07 2.74,-41.07 3.27,-54 0.34,-8.26 0.46,-16.32 0.36,-24.19 -0.11,-7.86 -0.41,-15.94 -0.92,-24.23 26.88,1.95 53.56,3.67 80.05,5.18 26.47,1.5 53.18,2.8 80.1,3.9 20.57,0.84 41.56,1.49 62.34,2.13 20.99,0.65 42,0.86 63.26,0.46zm617.94 51.36l-32.97 261.05c-11.96,-3.67 -23.51,-6.47 -35.12,-8.23 -11.61,-1.74 -23.24,-2.86 -35.33,-3.35 -29.46,-1.21 -57.6,1.47 -84.62,7.8 -27,6.32 -51.01,16.81 -72.2,31.23 -21.18,14.42 -38.3,33.25 -51.55,56.06 -13.03,22.82 -20.31,50.33 -21.61,82.13 -0.96,23.31 1.61,43.58 7.69,61.03 6.3,17.45 15.47,32.05 27.5,44 12.26,11.97 27.17,21.07 44.95,27.74 17.78,6.46 37.59,10.24 59.63,11.14 15.27,0.63 31.02,-0.43 47.26,-2.74 16.24,-2.52 32.74,-6.09 49.06,-10.73 16.34,-4.85 32.07,-10.37 47.4,-16.74 15.13,-6.39 29.21,-13.46 42.47,-20.77l-21.9 291.44c-16.44,7.61 -34.13,14.31 -53.04,19.91 -18.92,5.8 -38.23,10.54 -58.13,14.39 -19.92,4.07 -39.78,6.87 -59.38,8.62 -19.82,1.53 -38.74,2.02 -56.55,1.3 -58.71,-2.4 -111.68,-15.61 -159.12,-39.41 -47.22,-24.01 -87.55,-55.59 -120.57,-94.73 -32.99,-39.34 -57.9,-84.53 -74.94,-135.33 -17.03,-50.79 -24.39,-104.59 -22.07,-161.39 2.77,-67.82 14.91,-130.8 36.59,-188.73 21.7,-58.13 52.19,-107.83 91.48,-149.76 39.09,-41.7 86.89,-73.72 143.23,-96.04 56.33,-22.33 120.21,-32.03 191.87,-29.1 28.62,1.17 57.36,4.47 86.63,10.33 29.29,5.66 56.93,15.27 83.34,28.88zm718.48 1.97l-16.91 262.98 -185.36 -0.14 -46.03 575.36 -262.58 3.07 0.02 -577.24 -185.68 2.39 19.62 -292.8 676.92 26.38z"/>
  <g id="theCartMain">
   <g id="theBackCart">
    <path id="Vector_4" class="fil4" d="M6873.05 22908.23l2033.29 0 24.45 -859.67 -2198.42 0c-7.8,0 -14.03,0.6 -18.63,1.74 -17.16,4.15 -32.81,12.25 -44.2,22.78l203.51 835.15z"/>
    <path id="Vector_5" class="fil4" d="M8892.95 23379.16l-1905.13 0 181.36 744.26c11.04,45.27 28,84.73 50.93,107.66 4.77,4.77 10.37,7.74 16.65,7.74l1631.74 0 24.45 -859.66 0 0z"/>
    <path id="Vector_6" class="fil4" d="M9362.52 23379.16l-24.45 859.66 1618.35 0c3.82,0 8.27,-3.44 12.91,-8.77 23.27,-26.74 42.42,-71.94 58.36,-122.27l230.82 -728.62 -1895.99 0 0 0z"/>
    <path id="Vector_7" class="fil4" d="M9375.89 22908.23l2031.83 0 265.57 -838.29c-9.5,-6.79 -21.48,-12.57 -34.85,-16.79 -9.3,-2.96 -18.31,-4.59 -26.28,-4.59l-2211.82 0 -24.45 859.67 0 0z"/>
   </g>
   <g id="theItemInCart">
    <path id="Vector" class="fil5" d="M11273.81 22939.68l-1940.66 -2546.78 -2101.49 1040.37 1940.65 2546.77 2101.5 -1040.36z"/>
    <path id="Vector_2" class="fil6" d="M9490.61 20315.46l2036.93 2673.11 -2415.91 1196.02 -2133.76 -2800.2 2415.91 -1196.03 96.83 127.1 0 0zm1529.41 2575.34l-1747.55 -2293.37 -1787.06 884.73 1747.52 2293.36 1787.09 -884.72z"/>
   </g>
   <path id="cartwire" class="fil6" d="M9762.33 26406.57l-1120.43 0 0 -470.96 1120.43 0 0 470.96zm-5492.71 -6711.72c1686.25,163.1 1775.08,1027.04 1847.63,1732.97 19.99,194.5 38.37,373.04 105.09,502.72 62.34,-47.03 135.87,-82.08 212.24,-100.69 44.01,-10.7 87.54,-16.45 129.04,-16.45l0 0 4879.78 0c56.52,0 113.64,9.46 167.98,26.67 91.59,28.98 178.71,82.24 244.17,151 77.85,81.69 127.3,185.39 127.3,301.62 0,40.35 -6.14,81.42 -19.2,122.71l-655.74 2069.78c-33.17,104.69 -80.58,207.36 -152.18,289.69 -90.34,103.75 -209.21,170.66 -368.05,170.66l-3719.64 0c-58.42,0 -112.21,-9.18 -161.48,-26.11l0 0.02c-139.49,0 -266.51,57.24 -358.72,149.45 -92.21,92.14 -149.45,219.16 -149.45,358.66 0,139.47 57.24,266.43 149.45,358.64 92.21,92.21 219.23,149.42 358.72,149.42l0 470.96c-269.51,0 -514.38,-110.09 -691.74,-287.38 -177.38,-177.35 -287.48,-422.17 -287.48,-691.64 0,-269.48 110.1,-514.32 287.48,-691.64 96.15,-96.16 212.22,-172.53 341.23,-222.31 -4.32,-14.57 -8.31,-29.27 -11.91,-44.05l-504.4 -2069.78c-8.72,-35.77 -12.84,-69.18 -12.84,-100.27 0,-2.94 0.04,-5.86 0.1,-8.79 -194.17,-189.58 -225.28,-491.57 -259.77,-827.07 -59.32,-577.14 -131.95,-1283.48 -1530.69,-1418.77l33.08 -350.02zm2434.69 3449.18l2033.3 0 24.44 -859.67 -2198.43 0c-7.79,0 -14.01,0.59 -18.62,1.72 -17.15,4.16 -32.81,12.25 -44.19,22.8l203.5 835.15 0 0zm2502.83 0l2031.82 0 265.61 -838.32c-9.5,-6.78 -21.53,-12.57 -34.83,-16.79 -9.37,-2.93 -18.32,-4.56 -26.34,-4.56l-2211.8 0 -24.46 859.67 0 0zm1882.65 470.91l-1896.04 0 -24.42 859.65 1618.35 0c3.81,0 8.27,-3.45 12.9,-8.75 23.27,-26.74 42.42,-71.95 58.38,-122.29l230.83 -728.61zm-2365.54 0l-1905.15 0 181.35 744.24c11.03,45.3 28,84.76 50.93,107.67 4.77,4.76 10.36,7.74 16.66,7.74l1631.76 0 24.45 -859.65 0 0zm2889.51 2545.61c0,-359.27 -291.26,-650.47 -650.6,-650.47 -359.3,0 -650.58,291.2 -650.58,650.47 0,359.24 291.28,650.42 650.58,650.42 359.34,0 650.6,-291.18 650.6,-650.42zm-3410.52 38.31c0,-260.27 -211.05,-471.32 -471.37,-471.32 -260.34,0 -471.36,211.05 -471.36,471.32 0,260.26 211.02,471.26 471.36,471.26 260.32,0 471.37,-211 471.37,-471.26z"/>
  </g>
  <g id="sGroup">
   <g id="sSubGroup">
    <path class="fil7" d="M5933.91 7256.88l0 2641.57c0,96.86 79.25,176.1 176.14,176.1l1262.32 0c96.88,0 176.14,-79.24 176.14,-176.1l0 -2641.57c0,-8.34 -376.84,-547.17 -455.46,-546.34l-749.7 7.98c-64.68,67.69 -409.44,492.42 -409.44,538.36zm966.73 -163.12c0,105.66 -85.68,191.31 -191.36,191.31 -105.68,0 -191.35,-85.65 -191.35,-191.31 0,-105.66 85.67,-191.32 191.35,-191.32 105.68,0 191.36,85.66 191.36,191.32z"/>
    <path class="fil8" d="M7443.32 9150.59c0,113.66 -21.79,215.92 -65.4,306.77 -43.27,90.84 -107.05,161.94 -190.99,213.29 -83.95,51.34 -183.52,76.8 -298.37,76.8 -137.96,0 -251.85,-35.11 -341.33,-104.89 -63.44,-50.47 -114.86,-118.06 -154.55,-202.32 -39.7,-84.26 -59.54,-166.33 -59.54,-246.21 0,-46.08 12.04,-85.58 35.78,-118.93 23.76,-32.92 54.02,-49.15 90.79,-49.15 29.93,0 54.99,12.72 75.49,38.62 20.82,25.45 38.39,63.63 53.03,114.54 17.57,59.69 37.09,110.16 57.59,150.1 20.83,40.37 49.79,73.73 87.21,100.06 37.74,25.89 86.87,39.06 148.05,39.06 83.62,0 151.95,-26.33 204.33,-79 52.38,-52.66 78.74,-118.49 78.74,-197.49 0,-62.76 -13.99,-113.67 -42.3,-152.29 -28.3,-39.06 -65.07,-68.9 -109.98,-89.53 -44.57,-20.63 -104.76,-42.57 -179.61,-65.83 -100.21,-31.6 -184.48,-68.9 -251.84,-111.03 -67.68,-42.57 -121.36,-100.5 -161.06,-173.8 -39.69,-73.29 -59.54,-164.13 -59.54,-273.41 0,-103.57 20.82,-195.74 62.8,-276.49 41.97,-80.31 102.81,-142.19 182.2,-185.64 79.4,-43.45 172.78,-64.95 280.16,-64.95 85.57,0 159.76,14.48 222.56,43.01 62.47,28.96 114.53,67.14 155.85,114.54 41,47.4 71.26,97.43 90.45,149.65 18.88,52.23 28.64,103.58 28.64,153.17 0,45.2 -12.04,86.46 -35.79,122.88 -23.76,36.43 -53.69,54.42 -89.15,54.42 -32.54,0 -56.94,-10.97 -73.87,-32.47 -16.92,-21.95 -35.13,-57.93 -54.66,-107.53 -25.71,-71.09 -55.96,-126.83 -91.76,-166.77 -35.46,-39.93 -92.73,-59.68 -171.8,-59.68 -72.88,0 -132.1,21.5 -176.68,64.95 -44.9,43.45 -67.35,95.24 -67.35,156.24 0,37.74 7.48,70.22 22.78,97.87 15.29,27.21 36.44,50.9 63.12,70.65 26.68,19.75 53.69,35.11 81.02,46.52 27.33,10.98 72.56,27.21 135.36,48.72 78.74,25.01 150.33,52.22 214.09,82.51 63.78,29.84 118.12,66.27 163.02,109.28 44.9,42.57 79.72,96.99 104.77,162.38 25.06,65.83 37.74,146.14 37.74,241.38z"/>
    <path class="fil9" d="M6709.19 6830.32c72.64,0 138.46,29.49 186.12,77.13 47.77,47.74 77.33,113.61 77.33,186.21 0,72.73 -29.5,138.6 -77.16,186.25 -47.66,47.66 -113.55,77.15 -186.29,77.15 -72.62,0 -138.5,-29.55 -186.25,-77.31 -47.65,-47.65 -77.15,-113.46 -77.15,-186.09 0,-72.6 29.5,-138.4 77.15,-186.05l0.16 -0.16c47.66,-47.64 113.47,-77.13 186.09,-77.13zm130.19 133.38c-33.26,-33.25 -79.31,-53.83 -130.19,-53.83 -50.82,0 -96.82,20.55 -130.07,53.75 -33.21,33.24 -53.76,79.24 -53.76,130.04 0,50.87 20.58,96.92 53.84,130.17 33.15,33.14 79.13,53.68 129.99,53.68 50.77,0 96.77,-20.6 130.02,-53.85 33.26,-33.25 53.86,-79.23 53.86,-130 0,-50.85 -20.54,-96.82 -53.69,-129.96z"/>
   </g>
   <path class="fil10 str1" style="mask:url(#id0)" d="M6709.22 7093.7c-0.74,6.04 -160.48,-339.34 -159.82,-377.36 35.89,-2077.33 123.44,-1371.21 123.44,-3420.58"/>
  </g>
  <g id="aGroup">
   <g id="aSubGroup">
    <path class="fil7" d="M8399.62 7644.21l0 2641.57c0,96.86 79.26,176.11 176.14,176.11l1262.32 0c96.88,0 176.14,-79.25 176.14,-176.11l0 -2641.57c0,-8.34 -376.83,-547.17 -455.46,-546.33l-749.7 7.98c-64.68,67.68 -409.44,492.42 -409.44,538.35zm966.73 -163.12c0,105.66 -85.67,191.32 -191.35,191.32 -105.68,0 -191.35,-85.66 -191.35,-191.32 0,-105.66 85.67,-191.31 191.35,-191.31 105.68,0 191.35,85.65 191.35,191.31z"/>
    <path class="fil8" d="M9567.18 9865.89l-66.7 -236.55 -568.11 0 -66.7 241.38c-26.03,94.35 -48.16,157.99 -66.71,190.91 -18.21,32.91 -48.48,49.59 -90.45,49.59 -35.47,0 -67.03,-17.56 -94.36,-52.67 -27.33,-35.11 -41,-75.04 -41,-119.37 0,-25.89 3.26,-52.66 9.43,-79.87 6.51,-27.65 16.93,-65.39 31.57,-114.55l357.26 -1223.57c10.42,-35.11 22.46,-77.24 36.77,-126.39 14.32,-49.59 29.61,-90.41 45.88,-122.89 16.27,-32.47 37.42,-58.8 63.78,-78.99 26.35,-20.19 58.89,-30.28 97.61,-30.28 39.69,0 72.55,10.09 98.91,30.28 26.36,20.19 47.51,46.08 63.78,77.68 16.26,31.6 29.93,65.83 40.99,102.25 11.07,36.43 25.38,85.15 42.3,145.71l365.07 1216.11c28.64,92.6 42.96,159.75 42.96,201.88 0,43.45 -13.34,83.82 -40.35,120.25 -27.01,36.42 -59.87,54.42 -97.94,54.42 -22.13,0 -41.32,-5.27 -57.27,-16.24 -15.61,-10.53 -28.96,-25.02 -40.02,-43.45 -10.73,-18.43 -22.12,-46.96 -34.49,-84.7 -12.68,-38.18 -23.1,-71.97 -32.21,-100.94zm-560.3 -523.57l417.46 0 -210.52 -776.8 -206.94 776.8z"/>
    <path class="fil9" d="M9174.9 7217.65c72.64,0 138.46,29.49 186.12,77.13 47.77,47.74 77.33,113.61 77.33,186.22 0,72.73 -29.5,138.6 -77.16,186.25 -47.66,47.65 -113.55,77.14 -186.29,77.14 -72.62,0 -138.5,-29.55 -186.25,-77.31 -47.65,-47.65 -77.15,-113.46 -77.15,-186.08 0,-72.61 29.5,-138.4 77.15,-186.05l0.16 -0.17c47.67,-47.64 113.47,-77.13 186.09,-77.13zm130.19 133.38c-33.26,-33.25 -79.31,-53.83 -130.19,-53.83 -50.82,0 -96.82,20.55 -130.07,53.76 -33.21,33.23 -53.76,79.23 -53.76,130.04 0,50.87 20.58,96.91 53.84,130.16 33.15,33.15 79.13,53.68 129.99,53.68 50.78,0 96.77,-20.59 130.03,-53.84 33.25,-33.25 53.85,-79.24 53.85,-130 0,-50.85 -20.54,-96.82 -53.69,-129.97z"/>
   </g>
   <path class="fil10 str1" style="mask:url(#id2)" d="M9174.93 7481.03c-0.73,6.04 -160.48,-339.34 -159.82,-377.35 35.89,-2077.33 123.44,-1371.21 123.44,-3420.58"/>
  </g>
  <g id="lGroup">
   <g id="lSubGroup">
    <path class="fil7" d="M10195.94 8110.9l0 2641.57c0,96.86 79.26,176.11 176.14,176.11l1262.32 0c96.88,0 176.14,-79.25 176.14,-176.11l0 -2641.57c0,-8.34 -376.84,-547.17 -455.46,-546.33l-749.7 7.98c-64.68,67.68 -409.44,492.42 -409.44,538.35zm966.73 -163.12c0,105.66 -85.67,191.32 -191.35,191.32 -105.68,0 -191.36,-85.66 -191.36,-191.32 0,-105.66 85.68,-191.31 191.36,-191.31 105.68,0 191.35,85.65 191.35,191.31z"/>
    <path class="fil8" d="M10920.55 8884.18l0 1372.35 573.97 0c45.55,0 80.68,14.92 105.09,44.76 24.72,30.28 36.76,68.03 36.76,113.23 0,46.08 -12.04,83.82 -36.11,112.35 -24.08,28.53 -59.55,43.01 -105.74,43.01l-683.63 0c-61.5,0 -105.74,-18.43 -132.75,-55.3 -27.01,-36.86 -40.67,-96.55 -40.67,-178.62l0 -1451.78c0,-76.8 13.01,-134.73 38.72,-173.35 25.7,-38.62 59.54,-57.93 101.51,-57.93 42.31,0 76.8,18.87 103.15,57.05 26.35,38.18 39.7,96.55 39.7,174.23z"/>
    <path class="fil9" d="M10971.22 7684.34c72.64,0 138.46,29.49 186.12,77.13 47.77,47.74 77.33,113.61 77.33,186.22 0,72.73 -29.5,138.6 -77.16,186.25 -47.66,47.65 -113.55,77.14 -186.29,77.14 -72.62,0 -138.5,-29.55 -186.25,-77.31 -47.65,-47.65 -77.15,-113.46 -77.15,-186.08 0,-72.61 29.5,-138.4 77.15,-186.05l0.16 -0.17c47.66,-47.64 113.47,-77.13 186.09,-77.13zm130.19 133.38c-33.26,-33.25 -79.31,-53.83 -130.19,-53.83 -50.82,0 -96.82,20.55 -130.07,53.76 -33.21,33.23 -53.76,79.23 -53.76,130.04 0,50.87 20.58,96.91 53.84,130.16 33.15,33.15 79.13,53.68 129.99,53.68 50.78,0 96.77,-20.59 130.03,-53.84 33.25,-33.25 53.85,-79.24 53.85,-130 0,-50.85 -20.54,-96.82 -53.69,-129.97z"/>
   </g>
   <path class="fil10 str1" style="mask:url(#id4)" d="M10971.25 7947.72c-0.73,6.04 -160.48,-339.34 -159.82,-377.35 35.89,-2077.33 123.44,-1371.21 123.44,-3420.58"/>
  </g>
  <g id="eGroup">
   <g id="eSubGroup">
    <path class="fil7" d="M12279.44 7809.4l0 2641.57c0,96.86 79.26,176.11 176.14,176.11l1262.33 0c96.88,0 176.14,-79.25 176.14,-176.11l0 -2641.57c0,-8.34 -376.84,-547.17 -455.47,-546.33l-749.7 7.98c-64.67,67.68 -409.44,492.42 -409.44,538.35zm966.73 -163.12c0,105.66 -85.67,191.31 -191.35,191.31 -105.68,0 -191.35,-85.65 -191.35,-191.31 0,-105.66 85.67,-191.31 191.35,-191.31 105.68,0 191.35,85.65 191.35,191.31z"/>
    <path class="fil8" d="M13647.64 8677.92l-637.73 0 0 463.44 587.3 0c43.28,0 75.49,13.17 96.64,39.06 21.48,25.89 31.89,60.57 31.89,103.14 0,42.57 -10.41,77.68 -31.24,104.45 -21.15,26.77 -53.36,40.37 -97.29,40.37l-587.3 0 0 537.18 659.54 0c44.57,0 78.09,14.04 100.54,41.69 22.78,27.65 34.16,64.96 34.16,111.04 0,44.32 -11.38,80.75 -34.16,108.4 -22.45,27.65 -55.97,41.69 -100.54,41.69l-769.19 0c-61.5,0 -105.75,-18.43 -132.76,-55.3 -27.01,-36.86 -40.67,-96.55 -40.67,-178.62l0 -1417.55c0,-54.86 6.18,-99.62 18.22,-134.29 12.04,-34.67 30.91,-60.13 56.61,-75.93 25.71,-15.8 58.57,-23.7 98.6,-23.7l747.38 0c45.24,0 78.75,13.61 100.55,40.38 21.8,27.21 32.86,62.76 32.86,106.21 0,44.76 -11.06,80.75 -32.86,107.96 -21.8,26.77 -55.31,40.38 -100.55,40.38z"/>
    <path class="fil9" d="M13054.73 7382.84c72.63,0 138.46,29.49 186.12,77.13 47.76,47.74 77.32,113.61 77.32,186.22 0,72.72 -29.5,138.6 -77.16,186.25 -47.66,47.65 -113.54,77.14 -186.28,77.14 -72.62,0 -138.51,-29.55 -186.26,-77.31 -47.64,-47.65 -77.14,-113.46 -77.14,-186.08 0,-72.61 29.5,-138.4 77.14,-186.05l0.17 -0.17c47.66,-47.64 113.47,-77.13 186.09,-77.13zm130.19 133.38c-33.26,-33.25 -79.31,-53.83 -130.19,-53.83 -50.82,0 -96.83,20.55 -130.07,53.76 -33.21,33.23 -53.77,79.23 -53.77,130.04 0,50.87 20.59,96.91 53.84,130.16 33.16,33.15 79.13,53.68 130,53.68 50.77,0 96.76,-20.59 130.02,-53.84 33.26,-33.25 53.86,-79.24 53.86,-130 0,-50.86 -20.54,-96.82 -53.69,-129.97z"/>
   </g>
   <path class="fil10 str1" style="mask:url(#id6)" d="M13054.76 7646.22c-0.74,6.04 -160.49,-339.34 -159.83,-377.35 35.89,-2077.34 123.44,-1371.21 123.44,-3420.58"/>
  </g>
 </g>
</svg>
